<svg width="117" height="59" viewBox="0 0 117 59" fill="none" xmlns="http://www.w3.org/2000/svg">
<path d="M54.1879 28.8023C54.1879 43.7648 42.0578 55.8937 27.0939 55.8937C17.8094 55.8937 9.61756 51.2256 4.73282 44.1037C4.69776 44.0511 4.65686 43.9985 4.6218 43.9401C4.06672 43.1221 3.55838 42.2691 3.09678 41.3928C3.06173 41.3285 3.02667 41.2642 2.99745 41.2C2.19696 39.6517 1.54255 38.0158 1.05758 36.3157C1.04005 36.2514 1.02252 36.1872 1.00499 36.1229C0.823861 35.4685 0.660258 34.8025 0.525869 34.1248C0.50834 34.0488 0.496654 33.9729 0.479125 33.8911C0.292149 32.9154 0.157761 31.9222 0.0818019 30.9114C0.0759589 30.8472 0.0701159 30.7829 0.0701159 30.7186C0.023372 30.0877 0 29.445 0 28.8023V28.7673C0 28.6796 0 28.5862 0 28.4985C0.00584299 27.8617 0.0350579 27.2365 0.0876448 26.6114C0.0934878 26.5296 0.0993309 26.442 0.111017 26.3602C0.163604 25.7876 0.233719 25.2209 0.315521 24.66C0.327207 24.5782 0.338894 24.5023 0.35058 24.4263C0.496654 23.5208 0.689472 22.6269 0.929035 21.7505C0.946564 21.6862 0.964093 21.622 0.981622 21.5577C1.08095 21.1896 1.19197 20.8274 1.30883 20.471C1.3322 20.4067 1.34973 20.3425 1.3731 20.2782C1.56008 19.7173 1.76458 19.1565 1.98662 18.6131C2.05089 18.4554 2.11516 18.2976 2.18528 18.1457C6.32796 8.47648 15.9221 1.71094 27.0939 1.71094C42.0578 1.71094 54.1879 13.8398 54.1879 28.8023Z" fill="url(#paint0_linear_1300_104)"/>
<path d="M21.0348 6.48457C20.918 6.60142 20.7427 6.61894 20.6025 6.54299L14.6426 12.5023H9.68775L6.94739 15.2424H5.35226L1.98669 18.6076C2.05097 18.4499 2.11524 18.2921 2.18536 18.1402L5.27045 15.0554H6.86559L9.60595 12.3153H14.5608L20.4681 6.41446C20.3863 6.27424 20.4096 6.09897 20.5265 5.98212C20.6667 5.8419 20.9004 5.8419 21.0407 5.98212C21.1809 6.12234 21.1751 6.34435 21.0348 6.48457Z" fill="url(#paint1_linear_1300_104)"/>
<path d="M23.1034 50.3078C22.9632 50.4481 22.7295 50.4481 22.5893 50.3078C22.4724 50.191 22.449 50.0099 22.5308 49.8755L18.6102 45.9552H15.6595L10.5118 40.808H8.02853L4.73309 44.1032C4.69803 44.0506 4.65713 43.998 4.62207 43.9396L7.95257 40.6152H10.5936L15.7413 45.7624H18.692L22.6711 49.7411C22.8054 49.6593 22.9866 49.6827 23.1034 49.7995C23.2437 49.9398 23.2437 50.1676 23.1034 50.3078Z" fill="url(#paint2_linear_1300_104)"/>
<path d="M37.5415 43.1216C37.4013 43.2618 37.1734 43.2618 37.0274 43.1216C36.9105 43.0047 36.893 42.8294 36.9689 42.6892L33.8254 39.546H19.6737L15.607 35.4855H9.91006L8.67134 34.2469L6.78406 32.3656H2.28496L0.520376 34.1301C0.502847 34.0541 0.491162 33.9782 0.473633 33.8964L2.20316 32.167H6.86002L8.6655 33.9723L9.96265 35.2693L9.98602 35.2927H15.6829L19.7438 39.359H33.9014L37.1033 42.5607C37.2436 42.4847 37.4188 42.5023 37.5357 42.6191C37.6818 42.7535 37.6818 42.9813 37.5415 43.1216Z" fill="url(#paint3_linear_1300_104)"/>
<path d="M28.4848 22.9718C28.3679 23.0886 28.1926 23.1062 28.0524 23.0302L25.8554 25.227H14.5434L11.3531 28.4169L8.85817 30.9116H0.0819985C0.0761555 30.8474 0.0703125 30.7831 0.0703125 30.7189H8.77637L11.3531 28.1423L14.4558 25.04L14.4616 25.0342H25.7795L27.918 22.8958C27.842 22.7556 27.8596 22.5803 27.9764 22.4635C27.9881 22.4518 27.9998 22.4401 28.0115 22.4343C28.1517 22.3233 28.3562 22.335 28.4906 22.4635C28.514 22.4869 28.5374 22.5161 28.549 22.5453C28.625 22.6797 28.6075 22.8549 28.4848 22.9718Z" fill="url(#paint4_linear_1300_104)"/>
<path d="M37.3487 9.79111C37.3487 9.98975 37.1851 10.1533 36.9864 10.1533C36.817 10.1533 36.6826 10.0423 36.6358 9.89043H30.5533L27.0299 13.4134H22.2212L18.4817 17.1526H9.18546L4.59287 21.7447H0.929321C0.94685 21.6805 0.964379 21.6162 0.981908 21.5519H4.51692L9.1095 16.9598H18.4057L22.1452 13.2206H26.954L30.4773 9.69763H36.6417C36.6826 9.54573 36.8228 9.43472 36.9922 9.43472C37.1909 9.42888 37.3487 9.59247 37.3487 9.79111Z" fill="url(#paint5_linear_1300_104)"/>
<path d="M21.432 21.581C21.432 21.7796 21.2684 21.9432 21.0697 21.9432C20.9061 21.9432 20.7659 21.8322 20.7191 21.6803H10.7218L6.73103 25.6707H1.33211L0.31543 24.6541C0.327116 24.5723 0.338802 24.4964 0.350488 24.4204L1.40807 25.4779H6.64339L10.6341 21.4875H20.7133C20.7542 21.3356 20.8944 21.2246 21.0639 21.2246C21.2684 21.2246 21.432 21.3824 21.432 21.581Z" fill="url(#paint6_linear_1300_104)"/>
<path d="M24.757 16.4807L21.7128 19.5246H9.43079L5.26474 23.6903H2.5945C2.5536 23.5384 2.41336 23.4273 2.24392 23.4273C2.04526 23.4273 1.88165 23.5909 1.88165 23.7896C1.88165 23.9882 2.03941 24.1518 2.24392 24.1518C2.41336 24.1518 2.54775 24.0408 2.5945 23.8889H5.3407L9.50675 19.7232H21.7946L24.8388 16.6793H29.1684L31.3946 14.4534C31.5348 14.5293 31.7101 14.5118 31.827 14.3949C31.9672 14.2547 31.9672 14.0269 31.827 13.8808C31.6867 13.7347 31.4589 13.7406 31.3128 13.8808C31.1959 13.9977 31.1784 14.1729 31.2544 14.3131L29.0866 16.4807H24.757Z" fill="url(#paint7_linear_1300_104)"/>
<path d="M22.8812 24.0528C22.8812 24.2515 22.7176 24.4151 22.5189 24.4151C22.3494 24.4151 22.2151 24.3041 22.1683 24.1522H13.5148L8.67101 28.9955L8.39055 29.276H0.514199L0.00585938 28.7677C0.00585938 28.68 0.00585938 28.5866 0.00585938 28.4989L0.590158 29.0832H8.30875L8.67101 28.7209L13.433 23.9594H22.1625C22.2092 23.8074 22.3436 23.6964 22.5131 23.6964C22.7176 23.6906 22.8812 23.8542 22.8812 24.0528Z" fill="url(#paint8_linear_1300_104)"/>
<path d="M32.1192 18.4208C32.1192 18.6195 31.9556 18.7831 31.7569 18.7831C31.5933 18.7831 31.4531 18.672 31.4063 18.5201H27.9648L23.5066 22.9779H12.1303L8.98094 26.1212L7.48513 27.6168H1.10459L0.09375 26.6061C0.099593 26.5243 0.105436 26.4366 0.117122 26.3549L1.18639 27.424H7.40333L12.0485 22.7793H23.4248L27.883 18.3215H31.4063C31.4472 18.1696 31.5875 18.0586 31.7569 18.0586H31.7627C31.9614 18.0586 32.1192 18.2163 32.1192 18.4208Z" fill="url(#paint9_linear_1300_104)"/>
<path d="M29.8346 6.84588C29.7177 6.96273 29.5424 6.98025 29.4022 6.9043L25.5341 10.772H19.3639L15.49 14.6455H9.45421L3.63459 20.4704H1.30908C1.33245 20.4062 1.34998 20.3419 1.37336 20.2776H3.55279L9.37825 14.4527H15.4141L19.288 10.5792V10.585H25.4582L29.2678 6.77577C29.186 6.63555 29.2094 6.46028 29.3262 6.33759C29.4664 6.19737 29.7002 6.19737 29.8404 6.33759C29.9748 6.4778 29.9748 6.70566 29.8346 6.84588Z" fill="url(#paint10_linear_1300_104)"/>
<path d="M33.8252 42.0465C33.8252 42.2451 33.6616 42.4087 33.4629 42.4087C33.2993 42.4087 33.1591 42.2977 33.1124 42.1458H15.1978L11.7796 38.728H7.9057L5.2413 41.398H3.10861C3.07355 41.3337 3.03849 41.2694 3.00928 41.2052H5.16534L7.82974 38.5352H11.8672L15.2854 41.953H33.1124C33.1533 41.8011 33.2935 41.6901 33.4629 41.6901C33.6616 41.6901 33.8252 41.8478 33.8252 42.0465Z" fill="url(#paint11_linear_1300_104)"/>
<path d="M33.2937 40.99C33.2937 41.1886 33.1301 41.3522 32.9314 41.3522C32.7678 41.3522 32.6276 41.2412 32.5867 41.0893H19.1478L14.6663 36.6081H8.77653L6.86587 34.6918H3.22569L1.60134 36.316H1.0521C1.03457 36.2518 1.01704 36.1875 0.999512 36.1232H1.51954L3.14389 34.499H6.94183L8.85249 36.4095H14.7364L19.218 40.8907H32.575C32.6159 40.7387 32.7562 40.6277 32.9198 40.6277C33.1301 40.6277 33.2937 40.7855 33.2937 40.99Z" fill="url(#paint12_linear_1300_104)"/>
<path d="M26.8136 27.9964L30.4246 24.3857C30.5648 24.4617 30.7401 24.4442 30.857 24.3273C30.9972 24.1871 30.9972 23.9592 30.857 23.8132C30.7167 23.673 30.483 23.673 30.3428 23.8132C30.2259 23.93 30.2084 24.1053 30.2843 24.2455L26.7318 27.8036H14.1811L9.79299 32.1912C9.65275 32.1153 9.47747 32.1328 9.36061 32.2497C9.22037 32.3899 9.22037 32.6177 9.36061 32.7638C9.50084 32.904 9.73456 32.904 9.87479 32.7638C9.99165 32.6469 10.0092 32.4717 9.93322 32.3314L14.2629 28.0022L26.8136 27.9964Z" fill="url(#paint13_linear_1300_104)"/>
<path d="M36.8576 36.8824H33.0655L31.3009 35.1179H27.2692L25.2417 37.1453H20.1934L16.6701 33.6223H11.2536C11.2127 33.4704 11.0725 33.3594 10.903 33.3594C10.7044 33.3594 10.5408 33.523 10.5408 33.7216C10.5408 33.9202 10.7044 34.0838 10.903 34.0838C11.0666 34.0838 11.2069 33.9728 11.2536 33.8209H16.5941L20.1174 37.3439H25.3235L27.351 35.3166H31.2249L32.9895 37.081H36.7816L40.1238 40.4229C40.0479 40.5631 40.0654 40.7384 40.1822 40.8552C40.3225 40.9954 40.5504 40.9954 40.6964 40.8552C40.8367 40.715 40.8367 40.4871 40.6964 40.3411C40.5796 40.2242 40.4043 40.2067 40.2641 40.2827L36.8576 36.8824Z" fill="url(#paint14_linear_1300_104)"/>
<path d="M19.6848 30.1348L22.2733 32.723H25.4226L27.865 30.2809H31.4059L33.223 28.4639C33.3633 28.5398 33.5385 28.5223 33.6554 28.4054C33.7956 28.2652 33.7956 28.0374 33.6554 27.8913C33.5152 27.7511 33.2873 27.7511 33.1412 27.8913C33.0244 28.0081 33.0068 28.1834 33.0828 28.3236L31.3241 30.0881H27.7832L25.3408 32.5302H22.3492L19.7608 29.942H14.9286L13.0004 31.87C12.8602 31.7882 12.6849 31.8116 12.5681 31.9284C12.4278 32.0686 12.4278 32.2965 12.5681 32.4426C12.7083 32.5828 12.9362 32.5828 13.0822 32.4426C13.1991 32.3257 13.2166 32.1446 13.1407 32.0102L15.0163 30.1348H19.6907H19.6848Z" fill="url(#paint15_linear_1300_104)"/>
<path d="M24.5991 28.9245C24.5582 28.7726 24.418 28.6616 24.2544 28.6616C24.0557 28.6616 23.8921 28.8252 23.8921 29.0238C23.8921 29.2224 24.0557 29.386 24.2544 29.386C24.418 29.386 24.5582 29.275 24.5991 29.1231H29.9104L33.9245 25.1094C34.0647 25.1912 34.24 25.1678 34.3569 25.0509C34.4971 24.9107 34.4971 24.6829 34.3569 24.5368C34.2166 24.3966 33.9888 24.3966 33.8485 24.5368C33.7317 24.6537 33.7142 24.8289 33.7901 24.9691L29.8344 28.9245H24.5991Z" fill="url(#paint16_linear_1300_104)"/>
<path d="M32.826 31.8346H29.0047L27.1641 33.675H19.7085L18.1601 32.1267H15.1977C15.1568 31.9748 15.0166 31.8638 14.8471 31.8638C14.6485 31.8638 14.4849 32.0274 14.4849 32.2261C14.4849 32.4247 14.6485 32.5883 14.8471 32.5883C15.0107 32.5883 15.151 32.4773 15.1977 32.3254H18.0783L19.6267 33.8736H27.2401L29.0865 32.0333H32.902L38.2658 26.6699C38.4061 26.7459 38.5813 26.7283 38.6982 26.6115C38.8384 26.4713 38.8384 26.2434 38.6982 26.0974C38.558 25.9571 38.3301 25.9571 38.184 26.0974C38.0672 26.2142 38.0496 26.3895 38.1256 26.5297L32.826 31.8346Z" fill="url(#paint17_linear_1300_104)"/>
<path d="M18.5281 33.7214C18.3878 33.5812 18.16 33.5812 18.0197 33.7214C17.8795 33.8616 17.8795 34.0894 18.0197 34.2355C18.1366 34.3524 18.3177 34.3699 18.4521 34.2939L19.9538 35.7954H24.038C24.0789 35.9473 24.2191 36.0642 24.3827 36.0642C24.5814 36.0642 24.745 35.9006 24.745 35.702C24.745 35.5033 24.5814 35.3397 24.3827 35.3397C24.2191 35.3397 24.0789 35.4507 24.038 35.6026H20.0356L18.5865 34.1537C18.6625 34.0135 18.6449 33.8324 18.5281 33.7214Z" fill="url(#paint18_linear_1300_104)"/>
<path d="M36.9867 49.3271C36.823 49.3271 36.6828 49.4381 36.6361 49.59H31.6695L30.6587 48.5793H24.7865L20.4101 44.1975H16.0512C16.0103 44.0456 15.8701 43.9346 15.7006 43.9346C15.502 43.9346 15.3384 44.0982 15.3384 44.2968C15.3384 44.4954 15.502 44.659 15.7006 44.659C15.8642 44.659 16.0045 44.548 16.0512 44.3961H20.3224L24.6988 48.778H30.5769L31.5936 49.7945H36.6361C36.677 49.9464 36.8172 50.0574 36.9867 50.0574C37.1853 50.0574 37.3489 49.8939 37.3489 49.6952C37.3489 49.4907 37.1853 49.3271 36.9867 49.3271Z" fill="url(#paint19_linear_1300_104)"/>
<path d="M40.2992 47.3234C40.1297 47.3234 39.9953 47.4344 39.9486 47.5863H31.8619L30.9796 46.7041H26.1182L22.3261 42.9123H17.231C17.1901 42.7604 17.0499 42.6494 16.8805 42.6494C16.6818 42.6494 16.5182 42.813 16.5182 43.0116C16.5182 43.2103 16.6818 43.3739 16.8805 43.3739C17.0499 43.3739 17.1843 43.2629 17.231 43.111H22.2502L26.0423 46.9027H30.9036L31.7859 47.7849H39.9544C39.9953 47.9368 40.1355 48.0478 40.305 48.0478C40.5037 48.0478 40.6673 47.8842 40.6673 47.6856C40.6673 47.487 40.4978 47.3234 40.2992 47.3234Z" fill="url(#paint20_linear_1300_104)"/>
<path d="M34.5965 46.6452C34.7367 46.7854 34.9646 46.7854 35.1107 46.6452C35.2509 46.505 35.2509 46.2771 35.1107 46.1311C34.9938 46.0142 34.8127 45.9967 34.6783 46.0726L32.3762 43.7707H26.6267C26.5858 43.6188 26.4455 43.5078 26.2761 43.5078C26.0774 43.5078 25.9138 43.6714 25.9138 43.87C25.9138 44.0687 26.0774 44.2323 26.2761 44.2323C26.4397 44.2323 26.5799 44.1213 26.6267 43.9694H32.2885L34.5322 46.2187C34.4563 46.3531 34.4738 46.5284 34.5965 46.6452Z" fill="url(#paint21_linear_1300_104)"/>
<path d="M14.286 22.3584C17.3828 22.3584 19.9011 24.8706 19.9011 27.9671V35.2643H17.2192V27.9671C17.2192 26.3488 15.9045 25.0342 14.286 25.0342C12.6675 25.0342 11.3528 26.3488 11.3528 27.9671V35.2643H8.6709V27.9671C8.6709 24.8706 11.1834 22.3584 14.286 22.3584Z" fill="white"/>
<path fill-rule="evenodd" clip-rule="evenodd" d="M32.5399 26.489C32.5224 26.4189 32.499 26.3488 32.4756 26.2787C31.8971 24.45 30.413 23.0303 28.5491 22.5395C28.3738 22.4928 28.1927 22.4577 28.0116 22.4285C27.7194 22.3818 27.4273 22.3584 27.1234 22.3584C25.1018 22.3584 23.3255 23.4276 22.338 25.0342C22.2971 25.0985 22.2621 25.1628 22.227 25.227C21.7946 25.9924 21.5434 26.8688 21.5142 27.8035C21.5142 27.8561 21.5142 27.9087 21.5142 27.9671V29.6556C21.5142 30.6605 21.7771 31.607 22.2445 32.4191C22.303 32.5242 22.3672 32.6236 22.4315 32.7229C22.6594 33.0676 22.9223 33.3889 23.2203 33.6752C23.2904 33.7395 23.3605 33.8096 23.4307 33.868C24.4181 34.7327 25.7094 35.2585 27.1293 35.2585H27.1351C27.5675 35.2585 27.9823 35.2118 28.3855 35.1183C30.0858 34.7327 31.4881 33.57 32.2127 32.0276C32.2419 31.9634 32.2711 31.8991 32.3003 31.8348C32.4347 31.5135 32.5457 31.1746 32.6217 30.8241H29.817C29.6476 31.2097 29.3963 31.5544 29.0867 31.8348C28.9873 31.9225 28.8763 32.0101 28.7653 32.0861C28.2979 32.4015 27.7369 32.5827 27.1351 32.5827C26.6794 32.5827 26.2528 32.4775 25.8672 32.2905C25.8088 32.2613 25.7445 32.2321 25.6861 32.1971C24.7979 31.6946 24.2019 30.7423 24.2019 29.6498V29.4511H32.7502V27.9613C32.7327 27.453 32.6684 26.9622 32.5399 26.489ZM29.0516 25.7587C29.3613 26.0333 29.6184 26.3722 29.7937 26.7519H24.4532C24.9206 25.7412 25.9373 25.0342 27.1234 25.0342C27.7895 25.0342 28.4089 25.2562 28.8997 25.636C28.9523 25.6769 28.999 25.7178 29.0516 25.7587Z" fill="white"/>
<path fill-rule="evenodd" clip-rule="evenodd" d="M39.9603 22.3584C36.8577 22.3584 34.3452 24.8706 34.3452 27.9671V29.6556C34.3452 29.8659 34.3569 30.0763 34.3803 30.2866C34.3861 30.3684 34.3978 30.4502 34.4095 30.5261C34.8302 33.2136 37.1498 35.2643 39.9545 35.2643C43.0513 35.2643 45.5696 32.7521 45.5696 29.6556V27.9671C45.5754 24.8706 43.063 22.3584 39.9603 22.3584ZM42.8935 29.6556C42.8935 31.274 41.5788 32.5885 39.9603 32.5885C38.3418 32.5885 37.0271 31.274 37.0271 29.6556V27.9671C37.0271 27.9496 37.0271 27.9262 37.0271 27.9087C37.0271 27.8094 37.033 27.7101 37.0447 27.6166C37.22 26.1677 38.4587 25.0342 39.9603 25.0342C41.5788 25.0342 42.8935 26.3488 42.8935 27.9671V29.6556Z" fill="white"/>
<path d="M54.1879 28.8023C54.1879 43.7648 42.0578 55.8937 27.0939 55.8937C17.8094 55.8937 9.61756 51.2256 4.73282 44.1037C4.69776 44.0511 4.65686 43.9985 4.6218 43.9401C4.06672 43.1221 3.55838 42.2691 3.09678 41.3928C3.06173 41.3285 3.02667 41.2642 2.99745 41.2C2.19696 39.6517 1.54255 38.0158 1.05758 36.3157C1.04005 36.2514 1.02252 36.1872 1.00499 36.1229C0.823861 35.4685 0.660258 34.8025 0.525869 34.1248C0.50834 34.0488 0.496654 33.9729 0.479125 33.8911C0.292149 32.9154 0.157761 31.9222 0.0818019 30.9114C0.0759589 30.8472 0.0701159 30.7829 0.0701159 30.7186C0.023372 30.0877 0 29.445 0 28.8023V28.7673C0 28.6796 0 28.5862 0 28.4985C0.00584299 27.8617 0.0350579 27.2365 0.0876448 26.6114C0.0934878 26.5296 0.0993309 26.442 0.111017 26.3602C0.163604 25.7876 0.233719 25.2209 0.315521 24.66C0.327207 24.5782 0.338894 24.5023 0.35058 24.4263C0.496654 23.5208 0.689472 22.6269 0.929035 21.7505C0.946564 21.6862 0.964093 21.622 0.981622 21.5577C1.08095 21.1896 1.19197 20.8274 1.30883 20.471C1.3322 20.4067 1.34973 20.3425 1.3731 20.2782C1.56008 19.7173 1.76458 19.1565 1.98662 18.6131C2.05089 18.4554 2.11516 18.2976 2.18528 18.1457C6.32796 8.47648 15.9221 1.71094 27.0939 1.71094C42.0578 1.71094 54.1879 13.8398 54.1879 28.8023Z" fill="#21C8A4"/>
<path d="M53.6564 28.8029C53.6564 43.4733 41.766 55.3626 27.0942 55.3626C17.9908 55.3626 9.95674 50.7821 5.17133 43.8063C5.13627 43.7537 5.10122 43.7011 5.06616 43.6485C4.52276 42.8481 4.02611 42.0126 3.57035 41.148C3.53529 41.0837 3.50608 41.0194 3.47102 40.9552C2.68806 39.4361 2.04533 37.8353 1.56621 36.1644C1.54868 36.1001 1.53115 36.0358 1.51362 35.9716C1.33249 35.3289 1.17473 34.6745 1.04618 34.0143C1.02865 33.9384 1.01697 33.8624 0.999438 33.7865C0.818305 32.8283 0.68976 31.8585 0.613801 30.8653C0.607958 30.801 0.602115 30.7367 0.602115 30.6725C0.561214 30.0532 0.537842 29.4222 0.537842 28.7912V28.7562C0.537842 28.6685 0.537842 28.5809 0.537842 28.4932C0.543685 27.8681 0.5729 27.2546 0.625487 26.6412C0.63133 26.5594 0.637173 26.4776 0.648859 26.3958C0.701446 25.8349 0.765718 25.2799 0.853363 24.7249C0.865049 24.6489 0.876735 24.573 0.888421 24.4912C1.0345 23.6031 1.22147 22.7268 1.45519 21.8679C1.47272 21.8036 1.49025 21.7452 1.50778 21.681C1.60711 21.3246 1.71228 20.9682 1.82914 20.6118C1.85251 20.5475 1.87004 20.4833 1.89341 20.419C2.07455 19.864 2.27905 19.3206 2.49524 18.7831C2.55952 18.6312 2.62379 18.4735 2.68806 18.3216C6.73141 8.87433 16.1386 2.24316 27.0942 2.24316C41.766 2.24316 53.6564 14.1325 53.6564 28.8029Z" fill="#1B1B1B"/>
<g opacity="0.6">
<path d="M21.1523 6.92303C21.0354 7.03987 20.8601 7.0574 20.7258 6.98145L14.8828 12.8239H10.0272L7.34531 15.5056H5.77939L2.48395 18.8007C2.54822 18.6488 2.61249 18.4911 2.67677 18.3391L5.70343 15.3128H7.26935L9.95129 12.6311H14.8068L20.5972 6.84123C20.5213 6.70686 20.5388 6.53158 20.6556 6.41473C20.7959 6.27452 21.0179 6.27452 21.1581 6.41473C21.2867 6.5608 21.2867 6.78281 21.1523 6.92303Z" fill="#21C8A4"/>
<path d="M23.1854 49.8943C23.0452 50.0345 22.8173 50.0345 22.6829 49.8943C22.566 49.7775 22.5485 49.6022 22.6245 49.4678L18.7798 45.6235H15.8875L10.8392 40.5756H8.40263L5.17146 43.8065C5.1364 43.7539 5.10134 43.7013 5.06628 43.6488L8.32667 40.3887H10.921L15.9693 45.4365H18.8557L22.7589 49.3393C22.8932 49.2633 23.0685 49.2809 23.1854 49.3977C23.3198 49.5262 23.3198 49.7541 23.1854 49.8943Z" fill="#21C8A4"/>
<path d="M37.3371 42.8429C37.1969 42.9831 36.9748 42.9831 36.8346 42.8429C36.7177 42.726 36.7002 42.5566 36.7762 42.4164L33.6969 39.3374H19.814L15.8291 35.3529H10.2432L9.02782 34.1376L7.18144 32.2914H2.76998L1.04046 34.0208C1.02293 33.9448 1.01124 33.8689 0.993713 33.7929L2.68818 32.0986H7.2574L9.02782 33.8689L10.2958 35.1367L10.3191 35.1601H15.905L19.8899 39.1446H33.7729L36.9106 42.282C37.045 42.206 37.2202 42.2236 37.3371 42.3404C37.4773 42.4806 37.4773 42.7085 37.3371 42.8429Z" fill="#21C8A4"/>
<path d="M28.462 23.0827C28.3451 23.1996 28.1698 23.2171 28.0354 23.1411L25.8794 25.297H14.7894L11.6634 28.4227L9.21515 30.8707H0.608427C0.602584 30.8064 0.596741 30.7422 0.596741 30.6779H9.13335L11.6575 28.154L14.7017 25.1101L14.7076 25.1042H25.8034L27.901 23.0068C27.8251 22.8724 27.8426 22.6971 27.9595 22.5803C27.9711 22.5686 27.9828 22.5569 27.9945 22.5511C28.1347 22.4459 28.3334 22.4517 28.462 22.5803C28.4853 22.6036 28.5087 22.6329 28.5204 22.6621C28.5963 22.7964 28.573 22.9717 28.462 23.0827Z" fill="#21C8A4"/>
<path d="M37.1504 10.1661C37.1504 10.3589 36.9926 10.5225 36.794 10.5225C36.6304 10.5225 36.496 10.4115 36.4492 10.2596H30.4836L27.0245 13.7183H22.3092L18.6457 17.3874H9.5306L5.02566 21.8919H1.44391C1.46144 21.8276 1.47897 21.7692 1.4965 21.7049H4.96139L9.46633 17.2004H18.5814L22.2449 13.5372H26.9602L30.4193 10.0785H36.4668C36.5077 9.92659 36.6479 9.81559 36.8115 9.81559C36.9926 9.80974 37.1504 9.96749 37.1504 10.1661Z" fill="#21C8A4"/>
<path d="M21.5435 21.7216C21.5435 21.9202 21.3858 22.078 21.1871 22.078C21.0235 22.078 20.8891 21.967 20.8482 21.8151H11.0437L7.1289 25.7295H1.83515L0.835999 24.7305C0.847685 24.6545 0.85937 24.5786 0.871056 24.4968L1.91111 25.5367H7.04709L10.9619 21.6223H20.8424C20.8833 21.4704 21.0235 21.3594 21.1813 21.3594C21.3858 21.3711 21.5435 21.5288 21.5435 21.7216Z" fill="#21C8A4"/>
<path d="M24.8039 16.7208L21.8181 19.7063H9.7757L5.69145 23.7902H3.07379C3.03289 23.6383 2.8985 23.5273 2.7349 23.5273C2.53624 23.5273 2.37848 23.685 2.37848 23.8836C2.37848 24.0823 2.53624 24.24 2.7349 24.24C2.8985 24.24 3.03289 24.129 3.07379 23.9771H5.76741L9.85166 19.8933H21.8941L24.8798 16.9078H29.1218L31.3013 14.7285C31.4357 14.8045 31.6109 14.787 31.7278 14.6701C31.868 14.5299 31.868 14.3079 31.7278 14.1677C31.5876 14.0274 31.3655 14.0274 31.2253 14.1677C31.1085 14.2845 31.0909 14.4598 31.1669 14.5942L29.04 16.7208H24.8039Z" fill="#21C8A4"/>
<path d="M22.9636 24.1464C22.9636 24.3392 22.8058 24.5028 22.6071 24.5028C22.4435 24.5028 22.3092 24.3918 22.2624 24.2399H13.7842L9.03388 28.9898L8.75926 29.2644H1.02899L0.526489 28.7619C0.526489 28.6743 0.526489 28.5867 0.526489 28.499L1.0991 29.0716H8.66577L9.02219 28.7152L13.6907 24.0471H22.2507C22.2916 23.8952 22.4319 23.7842 22.5955 23.7842C22.8058 23.79 22.9636 23.9536 22.9636 24.1464Z" fill="#21C8A4"/>
<path d="M32.0257 18.62C32.0257 18.8187 31.8621 18.9764 31.6693 18.9764C31.5057 18.9764 31.3713 18.8654 31.3304 18.7135H27.9532L23.5826 23.0837H12.4225L9.33741 26.1743L7.87082 27.6408H1.60714L0.613831 26.6476C0.619674 26.5658 0.625516 26.484 0.637202 26.4022L1.6831 27.448H7.78318L12.3407 22.8909H23.495L27.8714 18.5207H31.3246C31.3655 18.3688 31.5057 18.2578 31.6693 18.2578H31.6752C31.8621 18.2695 32.0257 18.4214 32.0257 18.62Z" fill="#21C8A4"/>
<path d="M29.7767 7.27951C29.6598 7.39635 29.4845 7.41388 29.3501 7.33793L25.558 11.1297H19.5164L15.7184 14.9273H9.7995L4.0909 20.6353H1.81213C1.83551 20.5711 1.85303 20.5068 1.87641 20.4425H4.01494L9.72354 14.7345H15.6425L19.4404 10.9369V10.9427H25.4879L29.2216 7.2094C29.1456 7.06918 29.1632 6.89975 29.28 6.7829C29.4203 6.64268 29.6423 6.64268 29.7825 6.7829C29.9228 6.92312 29.9169 7.13929 29.7767 7.27951Z" fill="#21C8A4"/>
<path d="M33.6911 41.7908C33.6911 41.9894 33.5333 42.1472 33.3346 42.1472C33.171 42.1472 33.0366 42.0362 32.9957 41.8843H15.4259L12.072 38.5307H8.27407L5.66225 41.1481H3.57046C3.5354 41.0838 3.50619 41.0196 3.47113 40.9553H5.58045L8.19226 38.3379H12.148L15.5018 41.6914H32.9957C33.0366 41.5395 33.1769 41.4285 33.3346 41.4285C33.5333 41.4402 33.6911 41.5921 33.6911 41.7908Z" fill="#21C8A4"/>
<path d="M33.1709 40.7511C33.1709 40.9497 33.0131 41.1075 32.8145 41.1075C32.6509 41.1075 32.5165 40.9965 32.4756 40.8445H19.2997L14.9057 36.451H9.13285L7.25725 34.5756H3.68719L2.09789 36.1648H1.56034C1.54281 36.1005 1.52528 36.0362 1.50775 35.972H2.01609L3.60538 34.3828H7.33321L9.20881 36.2582H14.9817L19.3756 40.6517H32.4756C32.5165 40.4998 32.6509 40.3888 32.8145 40.3888C33.0131 40.3947 33.1709 40.5524 33.1709 40.7511Z" fill="#21C8A4"/>
<path d="M26.8199 28.0142L30.3608 24.4737C30.4952 24.5496 30.6705 24.5321 30.7873 24.4152C30.9276 24.275 30.9276 24.053 30.7873 23.9128C30.6471 23.7726 30.4192 23.7726 30.2848 23.9128C30.168 24.0296 30.1504 24.2049 30.2264 24.3393L26.7381 27.8272H14.4328L10.1324 32.1273C9.99797 32.0513 9.82268 32.0688 9.70582 32.1857C9.56559 32.3259 9.56559 32.5479 9.70582 32.6881C9.84605 32.8283 10.0681 32.8283 10.2083 32.6881C10.3252 32.5713 10.3427 32.396 10.2667 32.2616L14.5146 28.0142H26.8199Z" fill="#21C8A4"/>
<path d="M36.6655 36.7253H32.9435L31.2198 34.996H27.2641L25.2716 36.9882H20.3226L16.8694 33.5295H11.5523C11.5114 33.3776 11.377 33.2666 11.2134 33.2666C11.0148 33.2666 10.857 33.4243 10.857 33.623C10.857 33.8216 11.0148 33.9794 11.2134 33.9794C11.377 33.9794 11.5114 33.8684 11.5523 33.7165H16.7876L20.2467 37.1752H25.3534L27.3459 35.1829H31.1438L32.8734 36.9123H36.5895L39.8674 40.1899C39.7915 40.3243 39.809 40.4995 39.9259 40.6164C40.0661 40.7566 40.2881 40.7566 40.4284 40.6164C40.5686 40.4762 40.5686 40.2542 40.4284 40.1139C40.3115 39.9971 40.1362 39.9796 40.0018 40.0555L36.6655 36.7253Z" fill="#21C8A4"/>
<path d="M19.8259 30.1056L22.3676 32.6471H25.4585L27.8542 30.2517H31.3249L33.107 28.4697C33.2414 28.5457 33.4167 28.5282 33.5335 28.4113C33.6738 28.2711 33.6738 28.0491 33.5335 27.9089C33.3933 27.7687 33.1713 27.7687 33.031 27.9089C32.9142 28.0257 32.8966 28.201 32.9726 28.3354L31.2431 30.0647H27.7723L25.3767 32.4601H22.4435L19.9018 29.9187H15.1632L13.2701 31.8116C13.1357 31.7357 12.9604 31.7532 12.8435 31.87C12.7033 32.0103 12.7033 32.2323 12.8435 32.3725C12.9837 32.5127 13.2058 32.5127 13.346 32.3725C13.4629 32.2556 13.4804 32.0804 13.4044 31.946L15.2391 30.1115H19.82L19.8259 30.1056Z" fill="#21C8A4"/>
<path d="M24.6464 28.9198C24.6055 28.7679 24.4711 28.6569 24.3075 28.6569C24.1088 28.6569 23.951 28.8146 23.951 29.0133C23.951 29.2119 24.1088 29.3697 24.3075 29.3697C24.4711 29.3697 24.6055 29.2587 24.6464 29.1068H29.8525L33.7906 25.169C33.925 25.2449 34.1003 25.2274 34.2172 25.1105C34.3574 24.9703 34.3574 24.7483 34.2172 24.6081C34.077 24.4679 33.8549 24.4679 33.7147 24.6081C33.5978 24.7249 33.5803 24.9002 33.6563 25.0346L29.7765 28.9198H24.6464Z" fill="#21C8A4"/>
<path d="M32.7153 31.7773H28.9641L27.1586 33.5826H19.8548L18.3357 32.0636H15.4317C15.3908 31.9117 15.2506 31.8007 15.0928 31.8007C14.9 31.8007 14.7364 31.9584 14.7364 32.1571C14.7364 32.3557 14.8942 32.5135 15.0928 32.5135C15.2564 32.5135 15.3908 32.4025 15.4317 32.2505H18.2597L19.7789 33.7696H27.2404L29.0459 31.9643H32.7912L38.0499 26.7061C38.1843 26.782 38.3596 26.7645 38.4764 26.6477C38.6167 26.5074 38.6167 26.2854 38.4764 26.1452C38.3362 26.005 38.1142 26.005 37.974 26.1452C37.8571 26.2621 37.8396 26.4373 37.9155 26.5717L32.7153 31.7773Z" fill="#21C8A4"/>
<path d="M18.6922 33.6227C18.552 33.4825 18.3299 33.4825 18.1897 33.6227C18.0495 33.763 18.0495 33.985 18.1897 34.1252C18.3066 34.242 18.4819 34.2596 18.6162 34.1836L20.0887 35.6559H24.0911C24.132 35.8078 24.2664 35.9188 24.43 35.9188C24.6287 35.9188 24.7864 35.7611 24.7864 35.5624C24.7864 35.3638 24.6287 35.206 24.43 35.206C24.2664 35.206 24.132 35.317 24.0911 35.469H20.1646L18.7448 34.0492C18.8266 33.909 18.8091 33.7396 18.6922 33.6227Z" fill="#21C8A4"/>
<path d="M36.7936 48.93C36.63 48.93 36.4956 49.041 36.4547 49.1929H31.5875L30.5942 48.1997H24.833L20.5384 43.9055H16.273C16.2321 43.7536 16.0919 43.6426 15.9341 43.6426C15.7355 43.6426 15.5777 43.8003 15.5777 43.999C15.5777 44.1976 15.7355 44.3554 15.9341 44.3554C16.0977 44.3554 16.2321 44.2443 16.273 44.0924H20.4624L24.757 48.3866H30.5182L31.5115 49.3799H36.4605C36.5014 49.5318 36.6358 49.6428 36.8053 49.6428C37.0039 49.6428 37.1617 49.485 37.1617 49.2864C37.15 49.0877 36.9923 48.93 36.7936 48.93Z" fill="#21C8A4"/>
<path d="M40.0427 46.9613C39.8791 46.9613 39.7447 47.0723 39.7038 47.2242H31.769L30.9043 46.3596H26.1364L22.4203 42.6438H17.4245C17.3836 42.4919 17.2492 42.3809 17.0856 42.3809C16.8928 42.3809 16.7292 42.5386 16.7292 42.7372C16.7292 42.9359 16.8869 43.0936 17.0856 43.0936C17.2492 43.0936 17.3836 42.9826 17.4245 42.8307H22.3443L26.0604 46.5465H30.8283L31.6931 47.4112H39.7038C39.7447 47.5631 39.8791 47.6741 40.0427 47.6741C40.2414 47.6741 40.3991 47.5164 40.3991 47.3177C40.3991 47.1191 40.2414 46.9613 40.0427 46.9613Z" fill="#21C8A4"/>
<path d="M34.4506 46.2948C34.5909 46.435 34.8129 46.435 34.9531 46.2948C35.0934 46.1546 35.0934 45.9326 34.9531 45.7923C34.8363 45.6755 34.661 45.658 34.5266 45.7339L32.2712 43.4787H26.6444C26.6035 43.3268 26.4691 43.2158 26.3055 43.2158C26.1069 43.2158 25.9491 43.3736 25.9491 43.5722C25.9491 43.7709 26.1069 43.9286 26.3055 43.9286C26.4691 43.9286 26.6035 43.8176 26.6444 43.6657H32.1953L34.3981 45.8683C34.3163 46.0143 34.3338 46.1838 34.4506 46.2948Z" fill="#21C8A4"/>
</g>
<path d="M14.5318 22.4814C17.5702 22.4814 20.0359 24.9411 20.0359 27.9792V35.1362H17.4066V27.9792C17.4066 26.3959 16.1153 25.1047 14.5318 25.1047C12.9425 25.1047 11.6571 26.3959 11.6571 27.9792V35.1362H9.02771V27.9792C9.02771 24.947 11.4935 22.4814 14.5318 22.4814Z" fill="white"/>
<path fill-rule="evenodd" clip-rule="evenodd" d="M32.435 26.5361C32.4175 26.466 32.3941 26.3959 32.3766 26.3316C31.8098 24.538 30.3549 23.1475 28.5261 22.6684C28.3508 22.6217 28.1755 22.5866 28.0002 22.5574C27.7139 22.5107 27.4276 22.4873 27.1296 22.4873C25.143 22.4873 23.4076 23.5389 22.4377 25.1106C22.3968 25.1748 22.3617 25.2391 22.3266 25.3034C21.906 26.057 21.6547 26.9159 21.6255 27.8273C21.6255 27.8799 21.6255 27.9325 21.6255 27.985V29.6384C21.6255 30.6258 21.8884 31.5489 22.3383 32.3493C22.3968 32.4487 22.4552 32.5538 22.5195 32.6473C22.7415 32.9862 23.0044 33.3017 23.2907 33.5821C23.3609 33.6464 23.4251 33.7106 23.5011 33.7749C24.471 34.622 25.739 35.1362 27.1237 35.1362H27.1296C27.5503 35.1362 27.9651 35.0894 28.3566 34.996C30.0219 34.6162 31.4008 33.4828 32.1078 31.9696C32.137 31.9053 32.1662 31.841 32.1955 31.7768C32.3298 31.4613 32.435 31.1283 32.511 30.7836H29.7648C29.5953 31.1633 29.3499 31.5022 29.0461 31.7768C28.9468 31.8644 28.8416 31.9462 28.7306 32.0222C28.2748 32.3318 27.7197 32.5129 27.1296 32.5129C26.6855 32.5129 26.2648 32.4136 25.885 32.2266C25.8266 32.1974 25.7682 32.1682 25.7097 32.1332C24.8391 31.6366 24.2548 30.7018 24.2548 29.6384V29.4398H32.6337V27.9792C32.6278 27.4826 32.5577 26.9977 32.435 26.5361ZM29.011 25.8175C29.3149 26.0862 29.5661 26.4193 29.7356 26.7932H24.5002C24.956 25.8 25.9551 25.1106 27.1179 25.1106C27.7723 25.1106 28.38 25.3326 28.8591 25.7006C28.9117 25.7357 28.9643 25.7766 29.011 25.8175Z" fill="white"/>
<path fill-rule="evenodd" clip-rule="evenodd" d="M39.7094 22.4814C36.6711 22.4814 34.2053 24.9411 34.2053 27.9792V29.6326C34.2053 29.8429 34.217 30.0474 34.2404 30.2519C34.2462 30.3337 34.2579 30.4096 34.2696 30.4856C34.6786 33.1205 36.9574 35.1303 39.7094 35.1303C42.7478 35.1303 45.2135 32.6707 45.2135 29.6326V27.985C45.2135 24.947 42.7536 22.4814 39.7094 22.4814ZM42.59 29.6384C42.59 31.2217 41.2987 32.5129 39.7153 32.5129C38.126 32.5129 36.8405 31.2217 36.8405 29.6384V27.985C36.8405 27.9675 36.8405 27.9441 36.8405 27.9266C36.8405 27.8273 36.8464 27.7338 36.858 27.6403C37.0275 26.2206 38.2428 25.1105 39.7153 25.1105C41.3046 25.1105 42.59 26.4017 42.59 27.985V29.6384Z" fill="white"/>
<path d="M104.181 22.8262V24.7775H100.973V34.8791H98.5537V24.7775H95.3459V22.8262H104.181Z" fill="white"/>
<path d="M87.4055 34.8801H84.9865L79.5174 26.6072V34.8801H77.0984V22.8154H79.5174L84.9865 31.1V22.8154H87.4055V34.8801Z" fill="white"/>
<path d="M68.6205 22.8262V24.7775H63.5955V27.8682H68.6205V29.7845H63.5955V34.8791H61.1765V22.8262H68.6205Z" fill="white"/>
<path d="M74.06 26.6064V34.8793H71.641V26.6064H74.06Z" fill="white"/>
<path d="M74.662 25.7771H71.051C70.9341 25.7771 70.864 25.6485 70.9283 25.5492L72.7338 22.7156C72.7922 22.6221 72.9266 22.6221 72.985 22.7156L74.7905 25.5492C74.8489 25.6427 74.7788 25.7771 74.662 25.7771Z" fill="#21C8A4"/>
<path d="M92.8627 26.6064V34.8793H90.4437V26.6064H92.8627Z" fill="white"/>
<path d="M93.453 25.7771H89.8421C89.7252 25.7771 89.6551 25.6485 89.7194 25.5492L91.5249 22.7156C91.5833 22.6221 91.7177 22.6221 91.7761 22.7156L93.5816 25.5492C93.64 25.6427 93.5699 25.7771 93.453 25.7771Z" fill="#21C8A4"/>
<path d="M115.849 22.8262L111.776 30.6784V34.8791H109.357V30.6843L105.267 22.832H107.996L110.584 28.3356L113.155 22.832H115.849V22.8262Z" fill="white"/>
<defs>
<linearGradient id="paint0_linear_1300_104" x1="11.5603" y1="48.8565" x2="43.0055" y2="8.25258" gradientUnits="userSpaceOnUse">
<stop stop-color="#054C52"/>
<stop offset="1" stop-color="#040A22"/>
</linearGradient>
<linearGradient id="paint1_linear_1300_104" x1="12.2359" y1="12.7809" x2="16.4397" y2="15.6534" gradientUnits="userSpaceOnUse">
<stop stop-color="#066A68"/>
<stop offset="1" stop-color="#36EB8A"/>
</linearGradient>
<linearGradient id="paint2_linear_1300_104" x1="15.5103" y1="48.6583" x2="24.2713" y2="58.0721" gradientUnits="userSpaceOnUse">
<stop stop-color="#066A68"/>
<stop offset="1" stop-color="#36EB8A"/>
</linearGradient>
<linearGradient id="paint3_linear_1300_104" x1="21.8371" y1="41.3757" x2="38.3409" y2="59.0914" gradientUnits="userSpaceOnUse">
<stop stop-color="#066A68"/>
<stop offset="1" stop-color="#36EB8A"/>
</linearGradient>
<linearGradient id="paint4_linear_1300_104" x1="14.7116" y1="27.358" x2="17.7113" y2="32.1408" gradientUnits="userSpaceOnUse">
<stop stop-color="#066A68"/>
<stop offset="1" stop-color="#36EB8A"/>
</linearGradient>
<linearGradient id="paint5_linear_1300_104" x1="21.4991" y1="16.8112" x2="35.2656" y2="23.554" gradientUnits="userSpaceOnUse">
<stop stop-color="#066A68"/>
<stop offset="1" stop-color="#36EB8A"/>
</linearGradient>
<linearGradient id="paint6_linear_1300_104" x1="11.8618" y1="23.9678" x2="17.7566" y2="29.1596" gradientUnits="userSpaceOnUse">
<stop stop-color="#066A68"/>
<stop offset="1" stop-color="#36EB8A"/>
</linearGradient>
<linearGradient id="paint7_linear_1300_104" x1="19.6751" y1="17.9257" x2="35.6041" y2="10.5836" gradientUnits="userSpaceOnUse">
<stop stop-color="#066A68"/>
<stop offset="1" stop-color="#36EB8A"/>
</linearGradient>
<linearGradient id="paint8_linear_1300_104" x1="12.2343" y1="27.0572" x2="18.5622" y2="32.6237" gradientUnits="userSpaceOnUse">
<stop stop-color="#066A68"/>
<stop offset="1" stop-color="#36EB8A"/>
</linearGradient>
<linearGradient id="paint9_linear_1300_104" x1="17.4599" y1="23.515" x2="27.8425" y2="30.732" gradientUnits="userSpaceOnUse">
<stop stop-color="#066A68"/>
<stop offset="1" stop-color="#36EB8A"/>
</linearGradient>
<linearGradient id="paint10_linear_1300_104" x1="17.4018" y1="14.2266" x2="27.6959" y2="18.9411" gradientUnits="userSpaceOnUse">
<stop stop-color="#066A68"/>
<stop offset="1" stop-color="#36EB8A"/>
</linearGradient>
<linearGradient id="paint11_linear_1300_104" x1="19.1192" y1="43.1276" x2="23.4933" y2="52.6671" gradientUnits="userSpaceOnUse">
<stop stop-color="#066A68"/>
<stop offset="1" stop-color="#36EB8A"/>
</linearGradient>
<linearGradient id="paint12_linear_1300_104" x1="19.3573" y1="41.2983" x2="30.1725" y2="54.7364" gradientUnits="userSpaceOnUse">
<stop stop-color="#066A68"/>
<stop offset="1" stop-color="#36EB8A"/>
</linearGradient>
<linearGradient id="paint13_linear_1300_104" x1="22.0824" y1="27.3014" x2="34.2986" y2="22.692" gradientUnits="userSpaceOnUse">
<stop stop-color="#066A68"/>
<stop offset="1" stop-color="#36EB8A"/>
</linearGradient>
<linearGradient id="paint14_linear_1300_104" x1="27.9943" y1="35.6797" x2="41.8703" y2="26.8853" gradientUnits="userSpaceOnUse">
<stop stop-color="#066A68"/>
<stop offset="1" stop-color="#36EB8A"/>
</linearGradient>
<linearGradient id="paint15_linear_1300_104" x1="24.6216" y1="29.1096" x2="33.9243" y2="22.7167" gradientUnits="userSpaceOnUse">
<stop stop-color="#066A68"/>
<stop offset="1" stop-color="#36EB8A"/>
</linearGradient>
<linearGradient id="paint16_linear_1300_104" x1="30.4503" y1="27.2891" x2="36.5448" y2="25.2188" gradientUnits="userSpaceOnUse">
<stop stop-color="#066A68"/>
<stop offset="1" stop-color="#36EB8A"/>
</linearGradient>
<linearGradient id="paint17_linear_1300_104" x1="29.0141" y1="29.4035" x2="41.607" y2="23.217" gradientUnits="userSpaceOnUse">
<stop stop-color="#066A68"/>
<stop offset="1" stop-color="#36EB8A"/>
</linearGradient>
<linearGradient id="paint18_linear_1300_104" x1="21.9433" y1="34.5614" x2="25.6112" y2="32.93" gradientUnits="userSpaceOnUse">
<stop stop-color="#066A68"/>
<stop offset="1" stop-color="#36EB8A"/>
</linearGradient>
<linearGradient id="paint19_linear_1300_104" x1="28.1366" y1="45.9689" x2="38.7927" y2="39.8704" gradientUnits="userSpaceOnUse">
<stop stop-color="#066A68"/>
<stop offset="1" stop-color="#36EB8A"/>
</linearGradient>
<linearGradient id="paint20_linear_1300_104" x1="30.3221" y1="44.1175" x2="40.6215" y2="36.7859" gradientUnits="userSpaceOnUse">
<stop stop-color="#066A68"/>
<stop offset="1" stop-color="#36EB8A"/>
</linearGradient>
<linearGradient id="paint21_linear_1300_104" x1="31.3972" y1="44.7501" x2="36.343" y2="42.4951" gradientUnits="userSpaceOnUse">
<stop stop-color="#066A68"/>
<stop offset="1" stop-color="#36EB8A"/>
</linearGradient>
</defs>
</svg>
