<svg width="55" height="55" viewBox="0 0 55 55" fill="none" xmlns="http://www.w3.org/2000/svg">
<path d="M54.1879 27.8023C54.1879 42.7648 42.0578 54.8937 27.0939 54.8937C17.8094 54.8937 9.61756 50.2256 4.73282 43.1037C4.69776 43.0511 4.65686 42.9985 4.6218 42.9401C4.06672 42.1221 3.55838 41.2691 3.09678 40.3928C3.06173 40.3285 3.02667 40.2642 2.99745 40.2C2.19696 38.6517 1.54255 37.0158 1.05758 35.3157C1.04005 35.2514 1.02252 35.1872 1.00499 35.1229C0.823861 34.4685 0.660258 33.8025 0.525869 33.1248C0.50834 33.0488 0.496654 32.9729 0.479125 32.8911C0.292149 31.9154 0.157761 30.9222 0.0818019 29.9114C0.0759589 29.8472 0.0701159 29.7829 0.0701159 29.7186C0.023372 29.0877 0 28.445 0 27.8023V27.7673C0 27.6796 0 27.5862 0 27.4985C0.00584299 26.8617 0.0350579 26.2365 0.0876448 25.6114C0.0934878 25.5296 0.0993309 25.442 0.111017 25.3602C0.163604 24.7876 0.233719 24.2209 0.315521 23.66C0.327207 23.5782 0.338894 23.5023 0.35058 23.4263C0.496654 22.5208 0.689472 21.6269 0.929035 20.7505C0.946564 20.6862 0.964093 20.622 0.981622 20.5577C1.08095 20.1896 1.19197 19.8274 1.30883 19.471C1.3322 19.4067 1.34973 19.3425 1.3731 19.2782C1.56008 18.7173 1.76458 18.1565 1.98662 17.6131C2.05089 17.4554 2.11516 17.2976 2.18528 17.1457C6.32796 7.47648 15.9221 0.710938 27.0939 0.710938C42.0578 0.710938 54.1879 12.8398 54.1879 27.8023Z" fill="url(#paint0_linear_1412_106)"/>
<path d="M21.0348 5.48457C20.918 5.60142 20.7427 5.61894 20.6025 5.54299L14.6426 11.5023H9.68775L6.94739 14.2424H5.35226L1.98669 17.6076C2.05097 17.4499 2.11524 17.2921 2.18536 17.1402L5.27045 14.0554H6.86559L9.60595 11.3153H14.5608L20.4681 5.41446C20.3863 5.27424 20.4096 5.09897 20.5265 4.98212C20.6667 4.8419 20.9004 4.8419 21.0407 4.98212C21.1809 5.12234 21.1751 5.34435 21.0348 5.48457Z" fill="url(#paint1_linear_1412_106)"/>
<path d="M23.1034 49.3078C22.9632 49.4481 22.7295 49.4481 22.5893 49.3078C22.4724 49.191 22.449 49.0099 22.5308 48.8755L18.6102 44.9552H15.6595L10.5118 39.808H8.02853L4.73309 43.1032C4.69803 43.0506 4.65713 42.998 4.62207 42.9396L7.95257 39.6152H10.5936L15.7413 44.7624H18.692L22.6711 48.7411C22.8054 48.6593 22.9866 48.6827 23.1034 48.7995C23.2437 48.9398 23.2437 49.1676 23.1034 49.3078Z" fill="url(#paint2_linear_1412_106)"/>
<path d="M37.5415 42.1216C37.4013 42.2618 37.1734 42.2618 37.0274 42.1216C36.9105 42.0047 36.893 41.8294 36.9689 41.6892L33.8254 38.546H19.6737L15.607 34.4855H9.91006L8.67134 33.2469L6.78406 31.3656H2.28496L0.520376 33.1301C0.502847 33.0541 0.491162 32.9782 0.473633 32.8964L2.20316 31.167H6.86002L8.6655 32.9723L9.96265 34.2693L9.98602 34.2927H15.6829L19.7438 38.359H33.9014L37.1033 41.5607C37.2436 41.4847 37.4188 41.5023 37.5357 41.6191C37.6818 41.7535 37.6818 41.9813 37.5415 42.1216Z" fill="url(#paint3_linear_1412_106)"/>
<path d="M28.4848 21.9718C28.3679 22.0886 28.1926 22.1062 28.0524 22.0302L25.8554 24.227H14.5434L11.3531 27.4169L8.85817 29.9116H0.0819985C0.0761555 29.8474 0.0703125 29.7831 0.0703125 29.7189H8.77637L11.3531 27.1423L14.4558 24.04L14.4616 24.0342H25.7795L27.918 21.8958C27.842 21.7556 27.8596 21.5803 27.9764 21.4635C27.9881 21.4518 27.9998 21.4401 28.0115 21.4343C28.1517 21.3233 28.3562 21.335 28.4906 21.4635C28.514 21.4869 28.5374 21.5161 28.549 21.5453C28.625 21.6797 28.6075 21.8549 28.4848 21.9718Z" fill="url(#paint4_linear_1412_106)"/>
<path d="M37.3487 8.79111C37.3487 8.98975 37.1851 9.15334 36.9864 9.15334C36.817 9.15334 36.6826 9.04234 36.6358 8.89043H30.5533L27.0299 12.4134H22.2212L18.4817 16.1526H9.18546L4.59287 20.7447H0.929321C0.94685 20.6805 0.964379 20.6162 0.981908 20.5519H4.51692L9.1095 15.9598H18.4057L22.1452 12.2206H26.954L30.4773 8.69763H36.6417C36.6826 8.54573 36.8228 8.43472 36.9922 8.43472C37.1909 8.42888 37.3487 8.59247 37.3487 8.79111Z" fill="url(#paint5_linear_1412_106)"/>
<path d="M21.432 20.581C21.432 20.7796 21.2684 20.9432 21.0697 20.9432C20.9061 20.9432 20.7659 20.8322 20.7191 20.6803H10.7218L6.73103 24.6707H1.33211L0.31543 23.6541C0.327116 23.5723 0.338802 23.4964 0.350488 23.4204L1.40807 24.4779H6.64339L10.6341 20.4875H20.7133C20.7542 20.3356 20.8944 20.2246 21.0639 20.2246C21.2684 20.2246 21.432 20.3824 21.432 20.581Z" fill="url(#paint6_linear_1412_106)"/>
<path d="M24.757 15.4807L21.7128 18.5246H9.43079L5.26474 22.6903H2.5945C2.5536 22.5384 2.41336 22.4273 2.24392 22.4273C2.04526 22.4273 1.88165 22.5909 1.88165 22.7896C1.88165 22.9882 2.03941 23.1518 2.24392 23.1518C2.41336 23.1518 2.54775 23.0408 2.5945 22.8889H5.3407L9.50675 18.7232H21.7946L24.8388 15.6793H29.1684L31.3946 13.4534C31.5348 13.5293 31.7101 13.5118 31.827 13.3949C31.9672 13.2547 31.9672 13.0269 31.827 12.8808C31.6867 12.7347 31.4589 12.7406 31.3128 12.8808C31.1959 12.9977 31.1784 13.1729 31.2544 13.3131L29.0866 15.4807H24.757Z" fill="url(#paint7_linear_1412_106)"/>
<path d="M22.8812 23.0528C22.8812 23.2515 22.7176 23.4151 22.5189 23.4151C22.3494 23.4151 22.2151 23.3041 22.1683 23.1522H13.5148L8.67101 27.9955L8.39055 28.276H0.514199L0.00585938 27.7677C0.00585938 27.68 0.00585938 27.5866 0.00585938 27.4989L0.590158 28.0832H8.30875L8.67101 27.7209L13.433 22.9594H22.1625C22.2092 22.8074 22.3436 22.6964 22.5131 22.6964C22.7176 22.6906 22.8812 22.8542 22.8812 23.0528Z" fill="url(#paint8_linear_1412_106)"/>
<path d="M32.1192 17.4208C32.1192 17.6195 31.9556 17.7831 31.7569 17.7831C31.5933 17.7831 31.4531 17.672 31.4063 17.5201H27.9648L23.5066 21.9779H12.1303L8.98094 25.1212L7.48513 26.6168H1.10459L0.09375 25.6061C0.099593 25.5243 0.105436 25.4366 0.117122 25.3549L1.18639 26.424H7.40333L12.0485 21.7793H23.4248L27.883 17.3215H31.4063C31.4472 17.1696 31.5875 17.0586 31.7569 17.0586H31.7627C31.9614 17.0586 32.1192 17.2163 32.1192 17.4208Z" fill="url(#paint9_linear_1412_106)"/>
<path d="M29.8346 5.84588C29.7177 5.96273 29.5424 5.98025 29.4022 5.9043L25.5341 9.772H19.3639L15.49 13.6455H9.45421L3.63459 19.4704H1.30908C1.33245 19.4062 1.34998 19.3419 1.37336 19.2776H3.55279L9.37825 13.4527H15.4141L19.288 9.5792V9.58504H25.4582L29.2678 5.77577C29.186 5.63555 29.2094 5.46028 29.3262 5.33759C29.4664 5.19737 29.7002 5.19737 29.8404 5.33759C29.9748 5.4778 29.9748 5.70566 29.8346 5.84588Z" fill="url(#paint10_linear_1412_106)"/>
<path d="M33.8252 41.0465C33.8252 41.2451 33.6616 41.4087 33.4629 41.4087C33.2993 41.4087 33.1591 41.2977 33.1124 41.1458H15.1978L11.7796 37.728H7.9057L5.2413 40.398H3.10861C3.07355 40.3337 3.03849 40.2694 3.00928 40.2052H5.16534L7.82974 37.5352H11.8672L15.2854 40.953H33.1124C33.1533 40.8011 33.2935 40.6901 33.4629 40.6901C33.6616 40.6901 33.8252 40.8478 33.8252 41.0465Z" fill="url(#paint11_linear_1412_106)"/>
<path d="M33.2937 39.99C33.2937 40.1886 33.1301 40.3522 32.9314 40.3522C32.7678 40.3522 32.6276 40.2412 32.5867 40.0893H19.1478L14.6663 35.6081H8.77653L6.86587 33.6918H3.22569L1.60134 35.316H1.0521C1.03457 35.2518 1.01704 35.1875 0.999512 35.1232H1.51954L3.14389 33.499H6.94183L8.85249 35.4095H14.7364L19.218 39.8907H32.575C32.6159 39.7387 32.7562 39.6277 32.9198 39.6277C33.1301 39.6277 33.2937 39.7855 33.2937 39.99Z" fill="url(#paint12_linear_1412_106)"/>
<path d="M26.8136 26.9964L30.4246 23.3857C30.5648 23.4617 30.7401 23.4442 30.857 23.3273C30.9972 23.1871 30.9972 22.9592 30.857 22.8132C30.7167 22.673 30.483 22.673 30.3428 22.8132C30.2259 22.93 30.2084 23.1053 30.2843 23.2455L26.7318 26.8036H14.1811L9.79299 31.1912C9.65275 31.1153 9.47747 31.1328 9.36061 31.2497C9.22037 31.3899 9.22037 31.6177 9.36061 31.7638C9.50084 31.904 9.73456 31.904 9.87479 31.7638C9.99165 31.6469 10.0092 31.4717 9.93322 31.3314L14.2629 27.0022L26.8136 26.9964Z" fill="url(#paint13_linear_1412_106)"/>
<path d="M36.8576 35.8824H33.0655L31.3009 34.1179H27.2692L25.2417 36.1453H20.1934L16.6701 32.6223H11.2536C11.2127 32.4704 11.0725 32.3594 10.903 32.3594C10.7044 32.3594 10.5408 32.523 10.5408 32.7216C10.5408 32.9202 10.7044 33.0838 10.903 33.0838C11.0666 33.0838 11.2069 32.9728 11.2536 32.8209H16.5941L20.1174 36.3439H25.3235L27.351 34.3166H31.2249L32.9895 36.081H36.7816L40.1238 39.4229C40.0479 39.5631 40.0654 39.7384 40.1822 39.8552C40.3225 39.9954 40.5504 39.9954 40.6964 39.8552C40.8367 39.715 40.8367 39.4871 40.6964 39.3411C40.5796 39.2242 40.4043 39.2067 40.2641 39.2827L36.8576 35.8824Z" fill="url(#paint14_linear_1412_106)"/>
<path d="M19.6848 29.1348L22.2733 31.723H25.4226L27.865 29.2809H31.4059L33.223 27.4639C33.3633 27.5398 33.5385 27.5223 33.6554 27.4054C33.7956 27.2652 33.7956 27.0374 33.6554 26.8913C33.5152 26.7511 33.2873 26.7511 33.1412 26.8913C33.0244 27.0081 33.0068 27.1834 33.0828 27.3236L31.3241 29.0881H27.7832L25.3408 31.5302H22.3492L19.7608 28.942H14.9286L13.0004 30.87C12.8602 30.7882 12.6849 30.8116 12.5681 30.9284C12.4278 31.0686 12.4278 31.2965 12.5681 31.4426C12.7083 31.5828 12.9362 31.5828 13.0822 31.4426C13.1991 31.3257 13.2166 31.1446 13.1407 31.0102L15.0163 29.1348H19.6907H19.6848Z" fill="url(#paint15_linear_1412_106)"/>
<path d="M24.5991 27.9245C24.5582 27.7726 24.418 27.6616 24.2544 27.6616C24.0557 27.6616 23.8921 27.8252 23.8921 28.0238C23.8921 28.2224 24.0557 28.386 24.2544 28.386C24.418 28.386 24.5582 28.275 24.5991 28.1231H29.9104L33.9245 24.1094C34.0647 24.1912 34.24 24.1678 34.3569 24.0509C34.4971 23.9107 34.4971 23.6829 34.3569 23.5368C34.2166 23.3966 33.9888 23.3966 33.8485 23.5368C33.7317 23.6537 33.7142 23.8289 33.7901 23.9691L29.8344 27.9245H24.5991Z" fill="url(#paint16_linear_1412_106)"/>
<path d="M32.826 30.8346H29.0047L27.1641 32.675H19.7085L18.1601 31.1267H15.1977C15.1568 30.9748 15.0166 30.8638 14.8471 30.8638C14.6485 30.8638 14.4849 31.0274 14.4849 31.2261C14.4849 31.4247 14.6485 31.5883 14.8471 31.5883C15.0107 31.5883 15.151 31.4773 15.1977 31.3254H18.0783L19.6267 32.8736H27.2401L29.0865 31.0333H32.902L38.2658 25.6699C38.4061 25.7459 38.5813 25.7283 38.6982 25.6115C38.8384 25.4713 38.8384 25.2434 38.6982 25.0974C38.558 24.9571 38.3301 24.9571 38.184 25.0974C38.0672 25.2142 38.0496 25.3895 38.1256 25.5297L32.826 30.8346Z" fill="url(#paint17_linear_1412_106)"/>
<path d="M18.5281 32.7214C18.3878 32.5812 18.16 32.5812 18.0197 32.7214C17.8795 32.8616 17.8795 33.0894 18.0197 33.2355C18.1366 33.3524 18.3177 33.3699 18.4521 33.2939L19.9538 34.7954H24.038C24.0789 34.9473 24.2191 35.0642 24.3827 35.0642C24.5814 35.0642 24.745 34.9006 24.745 34.702C24.745 34.5033 24.5814 34.3397 24.3827 34.3397C24.2191 34.3397 24.0789 34.4507 24.038 34.6026H20.0356L18.5865 33.1537C18.6625 33.0135 18.6449 32.8324 18.5281 32.7214Z" fill="url(#paint18_linear_1412_106)"/>
<path d="M36.9867 48.3271C36.823 48.3271 36.6828 48.4381 36.6361 48.59H31.6695L30.6587 47.5793H24.7865L20.4101 43.1975H16.0512C16.0103 43.0456 15.8701 42.9346 15.7006 42.9346C15.502 42.9346 15.3384 43.0982 15.3384 43.2968C15.3384 43.4954 15.502 43.659 15.7006 43.659C15.8642 43.659 16.0045 43.548 16.0512 43.3961H20.3224L24.6988 47.778H30.5769L31.5936 48.7945H36.6361C36.677 48.9464 36.8172 49.0574 36.9867 49.0574C37.1853 49.0574 37.3489 48.8939 37.3489 48.6952C37.3489 48.4907 37.1853 48.3271 36.9867 48.3271Z" fill="url(#paint19_linear_1412_106)"/>
<path d="M40.2992 46.3234C40.1297 46.3234 39.9953 46.4344 39.9486 46.5863H31.8619L30.9796 45.7041H26.1182L22.3261 41.9123H17.231C17.1901 41.7604 17.0499 41.6494 16.8805 41.6494C16.6818 41.6494 16.5182 41.813 16.5182 42.0116C16.5182 42.2103 16.6818 42.3739 16.8805 42.3739C17.0499 42.3739 17.1843 42.2629 17.231 42.111H22.2502L26.0423 45.9027H30.9036L31.7859 46.7849H39.9544C39.9953 46.9368 40.1355 47.0478 40.305 47.0478C40.5037 47.0478 40.6673 46.8842 40.6673 46.6856C40.6673 46.487 40.4978 46.3234 40.2992 46.3234Z" fill="url(#paint20_linear_1412_106)"/>
<path d="M34.5965 45.6452C34.7367 45.7854 34.9646 45.7854 35.1107 45.6452C35.2509 45.505 35.2509 45.2771 35.1107 45.1311C34.9938 45.0142 34.8127 44.9967 34.6783 45.0726L32.3762 42.7707H26.6267C26.5858 42.6188 26.4455 42.5078 26.2761 42.5078C26.0774 42.5078 25.9138 42.6714 25.9138 42.87C25.9138 43.0687 26.0774 43.2323 26.2761 43.2323C26.4397 43.2323 26.5799 43.1213 26.6267 42.9694H32.2885L34.5322 45.2187C34.4563 45.3531 34.4738 45.5284 34.5965 45.6452Z" fill="url(#paint21_linear_1412_106)"/>
<path d="M14.286 21.3584C17.3828 21.3584 19.9011 23.8706 19.9011 26.9671V34.2643H17.2192V26.9671C17.2192 25.3488 15.9045 24.0342 14.286 24.0342C12.6675 24.0342 11.3528 25.3488 11.3528 26.9671V34.2643H8.6709V26.9671C8.6709 23.8706 11.1834 21.3584 14.286 21.3584Z" fill="white"/>
<path fill-rule="evenodd" clip-rule="evenodd" d="M32.5399 25.489C32.5224 25.4189 32.499 25.3488 32.4756 25.2787C31.8971 23.45 30.413 22.0303 28.5491 21.5395C28.3738 21.4928 28.1927 21.4577 28.0116 21.4285C27.7194 21.3818 27.4273 21.3584 27.1234 21.3584C25.1018 21.3584 23.3255 22.4276 22.338 24.0342C22.2971 24.0985 22.2621 24.1628 22.227 24.227C21.7946 24.9924 21.5434 25.8688 21.5142 26.8035C21.5142 26.8561 21.5142 26.9087 21.5142 26.9671V28.6556C21.5142 29.6605 21.7771 30.607 22.2445 31.4191C22.303 31.5242 22.3672 31.6236 22.4315 31.7229C22.6594 32.0676 22.9223 32.3889 23.2203 32.6752C23.2904 32.7395 23.3605 32.8096 23.4307 32.868C24.4181 33.7327 25.7094 34.2585 27.1293 34.2585H27.1351C27.5675 34.2585 27.9823 34.2118 28.3855 34.1183C30.0858 33.7327 31.4881 32.57 32.2127 31.0276C32.2419 30.9634 32.2711 30.8991 32.3003 30.8348C32.4347 30.5135 32.5457 30.1746 32.6217 29.8241H29.817C29.6476 30.2097 29.3963 30.5544 29.0867 30.8348C28.9873 30.9225 28.8763 31.0101 28.7653 31.0861C28.2979 31.4015 27.7369 31.5827 27.1351 31.5827C26.6794 31.5827 26.2528 31.4775 25.8672 31.2905C25.8088 31.2613 25.7445 31.2321 25.6861 31.1971C24.7979 30.6946 24.2019 29.7423 24.2019 28.6498V28.4511H32.7502V26.9613C32.7327 26.453 32.6684 25.9622 32.5399 25.489ZM29.0516 24.7587C29.3613 25.0333 29.6184 25.3722 29.7937 25.7519H24.4532C24.9206 24.7412 25.9373 24.0342 27.1234 24.0342C27.7895 24.0342 28.4089 24.2562 28.8997 24.636C28.9523 24.6769 28.999 24.7178 29.0516 24.7587Z" fill="white"/>
<path fill-rule="evenodd" clip-rule="evenodd" d="M39.9603 21.3584C36.8577 21.3584 34.3452 23.8706 34.3452 26.9671V28.6556C34.3452 28.8659 34.3569 29.0763 34.3803 29.2866C34.3861 29.3684 34.3978 29.4502 34.4095 29.5261C34.8302 32.2136 37.1498 34.2643 39.9545 34.2643C43.0513 34.2643 45.5696 31.7521 45.5696 28.6556V26.9671C45.5754 23.8706 43.063 21.3584 39.9603 21.3584ZM42.8935 28.6556C42.8935 30.274 41.5788 31.5885 39.9603 31.5885C38.3418 31.5885 37.0271 30.274 37.0271 28.6556V26.9671C37.0271 26.9496 37.0271 26.9262 37.0271 26.9087C37.0271 26.8094 37.033 26.7101 37.0447 26.6166C37.22 25.1677 38.4587 24.0342 39.9603 24.0342C41.5788 24.0342 42.8935 25.3488 42.8935 26.9671V28.6556Z" fill="white"/>
<defs>
<linearGradient id="paint0_linear_1412_106" x1="11.5603" y1="47.8565" x2="43.0055" y2="7.25258" gradientUnits="userSpaceOnUse">
<stop stop-color="#054C52"/>
<stop offset="1" stop-color="#040A22"/>
</linearGradient>
<linearGradient id="paint1_linear_1412_106" x1="12.2359" y1="11.7809" x2="16.4397" y2="14.6534" gradientUnits="userSpaceOnUse">
<stop stop-color="#066A68"/>
<stop offset="1" stop-color="#36EB8A"/>
</linearGradient>
<linearGradient id="paint2_linear_1412_106" x1="15.5103" y1="47.6583" x2="24.2713" y2="57.0721" gradientUnits="userSpaceOnUse">
<stop stop-color="#066A68"/>
<stop offset="1" stop-color="#36EB8A"/>
</linearGradient>
<linearGradient id="paint3_linear_1412_106" x1="21.8371" y1="40.3757" x2="38.3409" y2="58.0914" gradientUnits="userSpaceOnUse">
<stop stop-color="#066A68"/>
<stop offset="1" stop-color="#36EB8A"/>
</linearGradient>
<linearGradient id="paint4_linear_1412_106" x1="14.7116" y1="26.358" x2="17.7113" y2="31.1408" gradientUnits="userSpaceOnUse">
<stop stop-color="#066A68"/>
<stop offset="1" stop-color="#36EB8A"/>
</linearGradient>
<linearGradient id="paint5_linear_1412_106" x1="21.4991" y1="15.8112" x2="35.2656" y2="22.554" gradientUnits="userSpaceOnUse">
<stop stop-color="#066A68"/>
<stop offset="1" stop-color="#36EB8A"/>
</linearGradient>
<linearGradient id="paint6_linear_1412_106" x1="11.8618" y1="22.9678" x2="17.7566" y2="28.1596" gradientUnits="userSpaceOnUse">
<stop stop-color="#066A68"/>
<stop offset="1" stop-color="#36EB8A"/>
</linearGradient>
<linearGradient id="paint7_linear_1412_106" x1="19.6751" y1="16.9257" x2="35.6041" y2="9.58357" gradientUnits="userSpaceOnUse">
<stop stop-color="#066A68"/>
<stop offset="1" stop-color="#36EB8A"/>
</linearGradient>
<linearGradient id="paint8_linear_1412_106" x1="12.2343" y1="26.0572" x2="18.5622" y2="31.6237" gradientUnits="userSpaceOnUse">
<stop stop-color="#066A68"/>
<stop offset="1" stop-color="#36EB8A"/>
</linearGradient>
<linearGradient id="paint9_linear_1412_106" x1="17.4599" y1="22.515" x2="27.8425" y2="29.732" gradientUnits="userSpaceOnUse">
<stop stop-color="#066A68"/>
<stop offset="1" stop-color="#36EB8A"/>
</linearGradient>
<linearGradient id="paint10_linear_1412_106" x1="17.4018" y1="13.2266" x2="27.6959" y2="17.9411" gradientUnits="userSpaceOnUse">
<stop stop-color="#066A68"/>
<stop offset="1" stop-color="#36EB8A"/>
</linearGradient>
<linearGradient id="paint11_linear_1412_106" x1="19.1192" y1="42.1276" x2="23.4933" y2="51.6671" gradientUnits="userSpaceOnUse">
<stop stop-color="#066A68"/>
<stop offset="1" stop-color="#36EB8A"/>
</linearGradient>
<linearGradient id="paint12_linear_1412_106" x1="19.3573" y1="40.2983" x2="30.1725" y2="53.7364" gradientUnits="userSpaceOnUse">
<stop stop-color="#066A68"/>
<stop offset="1" stop-color="#36EB8A"/>
</linearGradient>
<linearGradient id="paint13_linear_1412_106" x1="22.0824" y1="26.3014" x2="34.2986" y2="21.692" gradientUnits="userSpaceOnUse">
<stop stop-color="#066A68"/>
<stop offset="1" stop-color="#36EB8A"/>
</linearGradient>
<linearGradient id="paint14_linear_1412_106" x1="27.9943" y1="34.6797" x2="41.8703" y2="25.8853" gradientUnits="userSpaceOnUse">
<stop stop-color="#066A68"/>
<stop offset="1" stop-color="#36EB8A"/>
</linearGradient>
<linearGradient id="paint15_linear_1412_106" x1="24.6216" y1="28.1096" x2="33.9243" y2="21.7167" gradientUnits="userSpaceOnUse">
<stop stop-color="#066A68"/>
<stop offset="1" stop-color="#36EB8A"/>
</linearGradient>
<linearGradient id="paint16_linear_1412_106" x1="30.4503" y1="26.2891" x2="36.5448" y2="24.2188" gradientUnits="userSpaceOnUse">
<stop stop-color="#066A68"/>
<stop offset="1" stop-color="#36EB8A"/>
</linearGradient>
<linearGradient id="paint17_linear_1412_106" x1="29.0141" y1="28.4035" x2="41.607" y2="22.217" gradientUnits="userSpaceOnUse">
<stop stop-color="#066A68"/>
<stop offset="1" stop-color="#36EB8A"/>
</linearGradient>
<linearGradient id="paint18_linear_1412_106" x1="21.9433" y1="33.5614" x2="25.6112" y2="31.93" gradientUnits="userSpaceOnUse">
<stop stop-color="#066A68"/>
<stop offset="1" stop-color="#36EB8A"/>
</linearGradient>
<linearGradient id="paint19_linear_1412_106" x1="28.1366" y1="44.9689" x2="38.7927" y2="38.8704" gradientUnits="userSpaceOnUse">
<stop stop-color="#066A68"/>
<stop offset="1" stop-color="#36EB8A"/>
</linearGradient>
<linearGradient id="paint20_linear_1412_106" x1="30.3221" y1="43.1175" x2="40.6215" y2="35.7859" gradientUnits="userSpaceOnUse">
<stop stop-color="#066A68"/>
<stop offset="1" stop-color="#36EB8A"/>
</linearGradient>
<linearGradient id="paint21_linear_1412_106" x1="31.3972" y1="43.7501" x2="36.343" y2="41.4951" gradientUnits="userSpaceOnUse">
<stop stop-color="#066A68"/>
<stop offset="1" stop-color="#36EB8A"/>
</linearGradient>
</defs>
</svg>
