<svg width="594" height="124" viewBox="0 0 594 124" fill="none" xmlns="http://www.w3.org/2000/svg">
<path d="M81.8945 1.78733V100.296H75.0523C73.9707 100.296 73.0655 100.113 72.3366 99.7465C71.6077 99.3798 70.8906 98.7612 70.1852 97.8904L11.7093 23.6477C11.8033 24.7934 11.8739 25.9162 11.9209 27.0161C11.9679 28.116 11.9914 29.1472 11.9914 30.1096V100.296H0V1.78733H7.05378C7.66512 1.78733 8.18239 1.82171 8.60562 1.89045C9.02884 1.95919 9.40505 2.07376 9.73423 2.23417C10.0634 2.39457 10.3926 2.62371 10.7218 2.9216C11.0509 3.21949 11.4036 3.59757 11.7798 4.05586L70.2557 78.2298C70.1617 77.0383 70.0794 75.8811 70.0089 74.7583C69.9383 73.6355 69.903 72.57 69.903 71.5617V1.78733H81.8945ZM150.387 57.8818C150.387 55.0405 149.975 52.4397 149.152 50.0795C148.329 47.7193 147.13 45.6799 145.555 43.9613C143.98 42.2428 142.063 40.9137 139.806 39.9742C137.549 39.0347 134.986 38.565 132.117 38.565C126.098 38.565 121.337 40.2721 117.834 43.6864C114.33 47.1006 112.155 51.8324 111.309 57.8818H150.387ZM160.544 90.5349C158.992 92.368 157.135 93.9606 154.972 95.3125C152.809 96.6645 150.493 97.7758 148.024 98.6466C145.555 99.5173 143.004 100.17 140.37 100.606C137.737 101.041 135.127 101.259 132.541 101.259C127.603 101.259 123.053 100.445 118.892 98.8185C114.73 97.1915 111.132 94.8084 108.099 91.6691C105.066 88.5299 102.703 84.6459 101.01 80.0172C99.3173 75.3885 98.4709 70.0723 98.4709 64.0687C98.4709 59.2109 99.2351 54.6738 100.763 50.4576C102.292 46.2413 104.49 42.5865 107.359 39.493C110.227 36.3996 113.731 33.9706 117.869 32.2062C122.007 30.4418 126.663 29.5596 131.835 29.5596C136.115 29.5596 140.076 30.2585 143.721 31.6563C147.365 33.0541 150.516 35.0705 153.173 37.7057C155.83 40.3408 157.911 43.5947 159.416 47.4672C160.92 51.3398 161.673 55.7508 161.673 60.7003C161.673 62.6251 161.461 63.9083 161.038 64.5499C160.615 65.1916 159.815 65.5123 158.64 65.5123H110.886C111.027 69.9119 111.65 73.7386 112.755 76.9925C113.86 80.2463 115.4 82.9617 117.375 85.1385C119.35 87.3154 121.701 88.9423 124.429 90.0193C127.156 91.0963 130.213 91.6348 133.599 91.6348C136.749 91.6348 139.465 91.2796 141.746 90.5692C144.027 89.8589 145.99 89.0913 147.636 88.2663C149.282 87.4414 150.657 86.6738 151.762 85.9635C152.867 85.2531 153.82 84.8979 154.619 84.8979C155.654 84.8979 156.453 85.2875 157.017 86.0666L160.544 90.5349ZM207.17 29.5596C212.39 29.5596 217.092 30.4074 221.277 32.1031C225.463 33.7988 229.037 36.2048 231.999 39.3212C234.962 42.4375 237.231 46.2069 238.806 50.6294C240.381 55.0519 241.169 59.99 241.169 65.4436C241.169 70.943 240.381 75.8926 238.806 80.2921C237.231 84.6917 234.962 88.4497 231.999 91.566C229.037 94.6824 225.463 97.077 221.277 98.7497C217.092 100.422 212.39 101.259 207.17 101.259C201.903 101.259 197.165 100.422 192.956 98.7497C188.748 97.077 185.162 94.6824 182.199 91.566C179.237 88.4497 176.968 84.6917 175.392 80.2921C173.817 75.8926 173.029 70.943 173.029 65.4436C173.029 59.99 173.817 55.0519 175.392 50.6294C176.968 46.2069 179.237 42.4375 182.199 39.3212C185.162 36.2048 188.748 33.7988 192.956 32.1031C197.165 30.4074 201.903 29.5596 207.17 29.5596ZM207.17 91.7035C214.224 91.7035 219.49 89.4006 222.97 84.7948C226.45 80.189 228.19 73.7615 228.19 65.5123C228.19 57.2173 226.45 50.7555 222.97 46.1267C219.49 41.498 214.224 39.1837 207.17 39.1837C203.596 39.1837 200.48 39.7794 197.823 40.971C195.167 42.1625 192.956 43.8811 191.193 46.1267C189.43 48.3724 188.113 51.1335 187.243 54.4103C186.373 57.6871 185.938 61.3878 185.938 65.5123C185.938 73.7615 187.69 80.189 191.193 84.7948C194.696 89.4006 200.022 91.7035 207.17 91.7035ZM271.5 12.6488V47.0891H313.047V57.9506H271.5V100.296H257.816V1.78733H320.101V12.6488H271.5ZM347.611 30.6595V100.296H335.055V30.6595H347.611ZM350.291 8.79915C350.291 9.99071 350.044 11.1021 349.55 12.1332C349.057 13.1643 348.398 14.0809 347.575 14.8829C346.753 15.6849 345.789 16.3151 344.683 16.7734C343.578 17.2317 342.414 17.4608 341.192 17.4608C339.969 17.4608 338.829 17.2317 337.771 16.7734C336.713 16.3151 335.784 15.6849 334.984 14.8829C334.185 14.0809 333.55 13.1643 333.08 12.1332C332.61 11.1021 332.375 9.99071 332.375 8.79915C332.375 7.6076 332.61 6.47333 333.08 5.39635C333.55 4.31938 334.185 3.37989 334.984 2.57788C335.784 1.77587 336.713 1.14573 337.771 0.687437C338.829 0.229147 339.969 0 341.192 0C342.414 0 343.578 0.229147 344.683 0.687437C345.789 1.14573 346.753 1.77587 347.575 2.57788C348.398 3.37989 349.057 4.31938 349.55 5.39635C350.044 6.47333 350.291 7.6076 350.291 8.79915ZM380.058 40.7648C381.61 39.0691 383.256 37.5338 384.996 36.159C386.736 34.7841 388.582 33.604 390.533 32.6187C392.485 31.6334 394.554 30.8772 396.74 30.3502C398.927 29.8231 401.29 29.5596 403.829 29.5596C407.733 29.5596 411.177 30.1898 414.163 31.4501C417.149 32.7103 419.642 34.4977 421.64 36.812C423.639 39.1264 425.155 41.9105 426.19 45.1643C427.225 48.4182 427.742 52.0157 427.742 55.957V100.296H415.116V55.957C415.116 50.6867 413.881 46.5965 411.412 43.6864C408.943 40.7762 405.193 39.3212 400.161 39.3212C396.447 39.3212 392.978 40.1919 389.757 41.9334C386.536 43.6749 383.562 46.0351 380.834 49.014V100.296H368.208V30.6595H375.755C377.542 30.6595 378.647 31.5073 379.071 33.203L380.058 40.7648ZM460.189 30.6595V100.296H447.634V30.6595H460.189ZM462.87 8.79915C462.87 9.99071 462.623 11.1021 462.129 12.1332C461.635 13.1643 460.977 14.0809 460.154 14.8829C459.331 15.6849 458.367 16.3151 457.262 16.7734C456.157 17.2317 454.993 17.4608 453.77 17.4608C452.548 17.4608 451.407 17.2317 450.349 16.7734C449.291 16.3151 448.362 15.6849 447.563 14.8829C446.763 14.0809 446.129 13.1643 445.658 12.1332C445.188 11.1021 444.953 9.99071 444.953 8.79915C444.953 7.6076 445.188 6.47333 445.658 5.39635C446.129 4.31938 446.763 3.37989 447.563 2.57788C448.362 1.77587 449.291 1.14573 450.349 0.687437C451.407 0.229147 452.548 0 453.77 0C454.993 0 456.157 0.229147 457.262 0.687437C458.367 1.14573 459.331 1.77587 460.154 2.57788C460.977 3.37989 461.635 4.31938 462.129 5.39635C462.623 6.47333 462.87 7.6076 462.87 8.79915ZM502.724 101.396C497.081 101.396 492.742 99.8611 489.709 96.7905C486.676 93.72 485.16 89.2975 485.16 83.5231V40.9023H476.554C475.802 40.9023 475.167 40.6846 474.649 40.2492C474.132 39.8138 473.874 39.1378 473.874 38.2213V33.3405L485.583 31.8969L488.475 10.3802C488.616 9.69281 488.933 9.13141 489.427 8.69604C489.921 8.26065 490.568 8.04296 491.367 8.04296H497.715V32.0344H518.383V40.9023H497.715V82.6982C497.715 85.6312 498.444 87.808 499.902 89.2288C501.36 90.6495 503.241 91.3598 505.545 91.3598C506.862 91.3598 508.002 91.1879 508.966 90.8442C509.93 90.5005 510.765 90.1224 511.47 89.71C512.176 89.2975 512.775 88.9194 513.269 88.5757C513.763 88.232 514.198 88.0601 514.574 88.0601C515.232 88.0601 515.82 88.4497 516.337 89.2288L520.005 95.0719C517.842 97.0426 515.232 98.5893 512.176 99.7121C509.119 100.835 505.968 101.396 502.724 101.396ZM593.012 30.6595L553.158 120.851C552.735 121.767 552.206 122.501 551.571 123.05C550.936 123.6 549.96 123.875 548.644 123.875H539.333L552.382 96.2406L522.898 30.6595H533.76C534.842 30.6595 535.7 30.923 536.335 31.4501C536.97 31.9771 537.405 32.5614 537.64 33.203L556.756 77.0612C557.508 78.986 558.143 81.0025 558.66 83.1106C559.318 80.9567 560.024 78.9173 560.776 76.9925L579.328 33.203C579.61 32.4697 580.092 31.8625 580.774 31.3813C581.456 30.9001 582.22 30.6595 583.066 30.6595H593.012Z" fill="url(#paint0_radial_1496_202)"/>
<defs>
<radialGradient id="paint0_radial_1496_202" cx="0" cy="0" r="1" gradientUnits="userSpaceOnUse" gradientTransform="translate(296.506 61.763) scale(296.506 61.9377)">
<stop stop-color="#22C7A3"/>
<stop offset="1" stop-color="#1F7E69"/>
</radialGradient>
</defs>
</svg>
