<svg width="511" height="500" viewBox="0 0 511 500" fill="none" xmlns="http://www.w3.org/2000/svg">
<path d="M510.889 250C510.889 388.074 396.526 500 255.445 500C167.909 500 90.6754 456.923 44.6216 391.201C44.291 390.716 43.9054 390.231 43.5749 389.692C38.3415 382.144 33.5488 374.272 29.1968 366.185C28.8663 365.592 28.5358 364.999 28.2603 364.406C20.7132 350.119 14.5433 335.023 9.97099 319.334C9.80573 318.741 9.64046 318.147 9.47519 317.554C7.76746 311.516 6.22498 305.37 4.95795 299.116C4.79269 298.415 4.68251 297.714 4.51724 296.959C2.75442 287.956 1.48739 278.79 0.771238 269.463C0.716149 268.87 0.661061 268.277 0.661061 267.684C0.220354 261.861 0 255.931 0 250V249.676C0 248.868 0 248.005 0 247.196C0.0550883 241.32 0.33053 235.551 0.826325 229.782C0.881413 229.027 0.936503 228.219 1.04668 227.464C1.54247 222.18 2.20353 216.951 2.97477 211.775C3.08495 211.02 3.19513 210.319 3.3053 209.618C4.68251 201.262 6.50042 193.013 8.75904 184.926C8.92431 184.333 9.08958 183.739 9.25484 183.146C10.1913 179.75 11.238 176.407 12.3398 173.118C12.5601 172.525 12.7254 171.932 12.9458 171.339C14.7086 166.163 16.6367 160.988 18.73 155.974C19.336 154.518 19.942 153.062 20.603 151.661C59.6607 62.4326 150.116 0 255.445 0C396.526 0 510.889 111.926 510.889 250Z" fill="url(#paint0_linear_1227_7706)"/>
<path d="M198.321 44.0509C197.219 45.1292 195.566 45.2909 194.244 44.5901L138.054 99.5825H91.339L65.5026 124.868H50.4635L18.7326 155.923C19.3386 154.467 19.9445 153.011 20.6056 151.61L49.6922 123.143H64.7314L90.5678 97.8573H137.283L192.977 43.404C192.206 42.11 192.426 40.4926 193.528 39.4143C194.85 38.1204 197.054 38.1204 198.376 39.4143C199.698 40.7082 199.643 42.757 198.321 44.0509Z" fill="url(#paint1_linear_1227_7706)"/>
<path d="M217.819 448.454C216.497 449.748 214.294 449.748 212.972 448.454C211.87 447.376 211.649 445.705 212.421 444.465L175.456 408.288H147.637L99.104 360.79H75.6915L44.6216 391.198C44.2911 390.712 43.9055 390.227 43.575 389.688L74.9753 359.011H99.8752L148.408 406.509H176.228L213.743 443.225C215.01 442.47 216.718 442.686 217.819 443.764C219.142 445.058 219.142 447.16 217.819 448.454Z" fill="url(#paint2_linear_1227_7706)"/>
<path d="M353.945 382.14C352.623 383.434 350.475 383.434 349.098 382.14C347.996 381.062 347.83 379.445 348.547 378.151L318.909 349.145H185.485L147.144 311.675H93.4326L81.7538 300.245L63.9603 282.884H21.5423L4.90561 299.166C4.74034 298.466 4.63017 297.765 4.4649 297.01L20.7711 281.051H64.6765L81.6988 297.711L93.9284 309.68L94.1487 309.895H147.86L186.146 347.42H319.625L349.814 376.965C351.136 376.264 352.788 376.425 353.89 377.504C355.267 378.744 355.267 380.846 353.945 382.14Z" fill="url(#paint3_linear_1227_7706)"/>
<path d="M268.559 196.193C267.457 197.272 265.804 197.434 264.482 196.733L243.769 217.004H137.118L107.04 246.441L83.517 269.463H0.774301C0.719212 268.87 0.664124 268.277 0.664124 267.684H82.7457L107.04 243.908L136.292 215.279L136.347 215.225H243.053L263.215 195.493C262.499 194.199 262.664 192.581 263.766 191.503C263.876 191.395 263.986 191.287 264.097 191.233C265.419 190.209 267.347 190.317 268.614 191.503C268.834 191.719 269.055 191.988 269.165 192.258C269.881 193.498 269.716 195.115 268.559 196.193Z" fill="url(#paint4_linear_1227_7706)"/>
<path d="M352.128 74.5646C352.128 76.3977 350.585 77.9073 348.712 77.9073C347.115 77.9073 345.848 76.8829 345.407 75.4811H288.06L254.842 107.991H209.504L174.248 142.496H86.602L43.3025 184.873H8.76215C8.92741 184.28 9.09268 183.687 9.25794 183.094H42.5864L85.8858 140.717H173.531L208.788 106.212H254.126L287.344 73.702H345.462C345.848 72.3002 347.17 71.2758 348.767 71.2758C350.64 71.2219 352.128 72.7315 352.128 74.5646Z" fill="url(#paint5_linear_1227_7706)"/>
<path d="M202.067 183.361C202.067 185.194 200.524 186.704 198.651 186.704C197.109 186.704 195.787 185.679 195.346 184.278H101.09L63.4643 221.101H12.5627L2.97729 211.72C3.08747 210.965 3.19765 210.264 3.30783 209.563L13.2788 219.322H62.638L100.263 182.498H195.291C195.676 181.097 196.998 180.072 198.596 180.072C200.524 180.072 202.067 181.528 202.067 183.361Z" fill="url(#paint6_linear_1227_7706)"/>
<path d="M233.41 136.296L204.709 164.385H88.9136L49.6356 202.826H24.4603C24.0747 201.424 22.7525 200.4 21.155 200.4C19.282 200.4 17.7395 201.91 17.7395 203.743C17.7395 205.576 19.2269 207.085 21.155 207.085C22.7525 207.085 24.0196 206.061 24.4603 204.659H50.3518L89.6298 166.218H205.481L234.182 138.129H275.002L295.991 117.588C297.313 118.289 298.965 118.127 300.067 117.049C301.389 115.755 301.389 113.652 300.067 112.304C298.745 110.956 296.597 111.01 295.219 112.304C294.118 113.383 293.952 115 294.669 116.294L274.231 136.296H233.41Z" fill="url(#paint7_linear_1227_7706)"/>
<path d="M215.729 206.173C215.729 208.006 214.186 209.516 212.313 209.516C210.716 209.516 209.449 208.491 209.008 207.09H127.422L81.7539 251.784L79.1097 254.372H4.85061L0.0579224 249.682C0.0579224 248.873 0.0579224 248.01 0.0579224 247.202L5.56676 252.593H78.3385L81.7539 249.25L126.651 205.31H208.953C209.394 203.909 210.661 202.884 212.258 202.884C214.186 202.83 215.729 204.34 215.729 206.173Z" fill="url(#paint8_linear_1227_7706)"/>
<path d="M302.825 154.199C302.825 156.032 301.282 157.541 299.409 157.541C297.867 157.541 296.545 156.517 296.104 155.115H263.657L221.624 196.252H114.367L84.6749 225.258L70.5722 239.06H10.4158L0.885498 229.732C0.940586 228.978 0.995673 228.169 1.10585 227.414L11.187 237.28H69.801L113.596 194.419H220.853L262.886 153.282H296.104C296.49 151.88 297.812 150.856 299.409 150.856H299.464C301.337 150.856 302.825 152.312 302.825 154.199Z" fill="url(#paint9_linear_1227_7706)"/>
<path d="M281.279 47.3861C280.177 48.4644 278.524 48.6261 277.202 47.9252L240.734 83.6164H182.56L146.037 119.361H89.1306L34.2626 173.114H12.3374C12.5578 172.521 12.723 171.928 12.9434 171.335H33.4913L88.4144 117.582H145.321L181.844 81.8372V81.8912H240.018L275.935 46.7391C275.164 45.4452 275.384 43.8278 276.486 42.6956C277.808 41.4016 280.012 41.4016 281.334 42.6956C282.601 43.9895 282.601 46.0921 281.279 47.3861Z" fill="url(#paint10_linear_1227_7706)"/>
<path d="M318.91 372.219C318.91 374.052 317.368 375.562 315.495 375.562C313.952 375.562 312.63 374.538 312.189 373.136H143.288L111.062 341.596H74.5381L49.4178 366.235H29.3106C28.9801 365.642 28.6495 365.049 28.3741 364.456H48.7017L73.822 339.817H111.888L144.115 371.357H312.189C312.575 369.955 313.897 368.931 315.495 368.931C317.368 368.931 318.91 370.386 318.91 372.219Z" fill="url(#paint11_linear_1227_7706)"/>
<path d="M313.9 362.467C313.9 364.301 312.357 365.81 310.484 365.81C308.942 365.81 307.62 364.786 307.234 363.384H180.531L138.278 322.032H82.7489L64.735 304.348H30.415L15.1004 319.336H9.92213C9.75686 318.743 9.5916 318.15 9.42633 317.557H14.3292L29.6437 302.569H65.4512L83.4651 320.199H138.939L181.192 361.551H307.124C307.509 360.149 308.831 359.125 310.374 359.125C312.357 359.125 313.9 360.58 313.9 362.467Z" fill="url(#paint12_linear_1227_7706)"/>
<path d="M252.802 242.564L286.847 209.245C288.169 209.946 289.821 209.784 290.923 208.706C292.245 207.412 292.245 205.309 290.923 203.961C289.601 202.667 287.398 202.667 286.075 203.961C284.974 205.039 284.808 206.657 285.525 207.951L252.031 240.785H133.701L92.3298 281.274C91.0077 280.573 89.355 280.735 88.2532 281.813C86.9311 283.107 86.9311 285.21 88.2532 286.558C89.5754 287.852 91.7789 287.852 93.101 286.558C94.2028 285.479 94.3681 283.862 93.6519 282.568L134.472 242.618L252.802 242.564Z" fill="url(#paint13_linear_1227_7706)"/>
<path d="M347.498 324.562H311.745L295.109 308.28H257.098L237.982 326.989H190.386L157.167 294.478H106.1C105.715 293.077 104.393 292.052 102.795 292.052C100.922 292.052 99.3797 293.562 99.3797 295.395C99.3797 297.228 100.922 298.738 102.795 298.738C104.338 298.738 105.66 297.713 106.1 296.311H156.451L189.669 328.822H238.753L257.869 310.113H294.392L311.029 326.396H346.781L378.292 357.234C377.576 358.528 377.741 360.146 378.843 361.224C380.165 362.518 382.313 362.518 383.691 361.224C385.013 359.93 385.013 357.828 383.691 356.48C382.589 355.401 380.936 355.24 379.614 355.941L347.498 324.562Z" fill="url(#paint14_linear_1227_7706)"/>
<path d="M185.593 262.295L209.997 286.179H239.69L262.717 263.642H296.1L313.233 246.875C314.555 247.576 316.208 247.414 317.309 246.336C318.632 245.042 318.632 242.939 317.309 241.592C315.987 240.298 313.839 240.298 312.462 241.592C311.36 242.67 311.195 244.287 311.911 245.581L295.329 261.863H261.946L238.919 284.399H210.714L186.309 260.515H140.751L122.572 278.307C121.25 277.552 119.597 277.768 118.496 278.846C117.174 280.14 117.174 282.243 118.496 283.591C119.818 284.885 121.966 284.885 123.343 283.591C124.445 282.512 124.61 280.841 123.894 279.601L141.578 262.295H185.648H185.593Z" fill="url(#paint15_linear_1227_7706)"/>
<path d="M231.925 251.127C231.539 249.725 230.217 248.701 228.675 248.701C226.801 248.701 225.259 250.21 225.259 252.044C225.259 253.877 226.801 255.386 228.675 255.386C230.217 255.386 231.539 254.362 231.925 252.96H282L319.846 215.921C321.168 216.676 322.82 216.46 323.922 215.382C325.244 214.088 325.244 211.985 323.922 210.637C322.6 209.344 320.452 209.344 319.13 210.637C318.028 211.716 317.863 213.333 318.579 214.627L281.284 251.127H231.925Z" fill="url(#paint16_linear_1227_7706)"/>
<path d="M309.49 277.982H273.462L256.109 294.965H185.817L171.218 280.677H143.288C142.903 279.275 141.581 278.251 139.983 278.251C138.11 278.251 136.568 279.761 136.568 281.594C136.568 283.427 138.11 284.936 139.983 284.936C141.526 284.936 142.848 283.912 143.288 282.51H170.447L185.045 296.798H256.826L274.233 279.815H310.206L360.777 230.321C362.099 231.022 363.752 230.861 364.854 229.782C366.176 228.488 366.176 226.386 364.854 225.038C363.532 223.744 361.383 223.744 360.006 225.038C358.904 226.116 358.739 227.734 359.455 229.027L309.49 277.982Z" fill="url(#paint17_linear_1227_7706)"/>
<path d="M174.686 295.394C173.364 294.1 171.216 294.1 169.893 295.394C168.571 296.688 168.571 298.79 169.893 300.138C170.995 301.217 172.703 301.378 173.97 300.677L188.128 314.533H226.634C227.02 315.935 228.342 317.013 229.885 317.013C231.758 317.013 233.3 315.504 233.3 313.671C233.3 311.838 231.758 310.328 229.885 310.328C228.342 310.328 227.02 311.352 226.634 312.754H188.899L175.237 299.383C175.953 298.089 175.788 296.418 174.686 295.394Z" fill="url(#paint18_linear_1227_7706)"/>
<path d="M348.718 439.405C347.176 439.405 345.854 440.429 345.413 441.831H298.588L289.058 432.504H233.694L192.433 392.068H151.337C150.951 390.666 149.629 389.642 148.032 389.642C146.159 389.642 144.616 391.152 144.616 392.985C144.616 394.818 146.159 396.327 148.032 396.327C149.574 396.327 150.896 395.303 151.337 393.901H191.606L232.868 434.337H288.286L297.872 443.718H345.413C345.799 445.12 347.121 446.144 348.718 446.144C350.591 446.144 352.134 444.635 352.134 442.801C352.134 440.914 350.591 439.405 348.718 439.405Z" fill="url(#paint19_linear_1227_7706)"/>
<path d="M379.944 420.91C378.347 420.91 377.08 421.935 376.639 423.336H300.397L292.078 415.195H246.245L210.493 380.205H162.456C162.07 378.803 160.748 377.779 159.15 377.779C157.277 377.779 155.735 379.288 155.735 381.121C155.735 382.955 157.277 384.464 159.15 384.464C160.748 384.464 162.015 383.44 162.456 382.038H209.776L245.529 417.028H291.362L299.681 425.169H376.694C377.08 426.571 378.402 427.596 379.999 427.596C381.872 427.596 383.415 426.086 383.415 424.253C383.415 422.42 381.817 420.91 379.944 420.91Z" fill="url(#paint20_linear_1227_7706)"/>
<path d="M326.184 414.653C327.506 415.947 329.655 415.947 331.032 414.653C332.354 413.359 332.354 411.256 331.032 409.908C329.93 408.83 328.222 408.668 326.955 409.369L305.25 388.127H251.043C250.658 386.725 249.336 385.701 247.738 385.701C245.865 385.701 244.323 387.21 244.323 389.043C244.323 390.876 245.865 392.386 247.738 392.386C249.281 392.386 250.603 391.362 251.043 389.96H304.424L325.578 410.717C324.862 411.957 325.027 413.574 326.184 414.653Z" fill="url(#paint21_linear_1227_7706)"/>
<path d="M134.692 190.533C163.889 190.533 187.632 213.716 187.632 242.291V309.63H162.346V242.291C162.346 227.357 149.951 215.226 134.692 215.226C119.432 215.226 107.038 227.357 107.038 242.291V309.63H81.752V242.291C81.752 213.716 105.44 190.533 134.692 190.533Z" fill="white"/>
<path fill-rule="evenodd" clip-rule="evenodd" d="M306.791 228.651C306.626 228.004 306.406 227.357 306.185 226.71C300.731 209.834 286.739 196.733 269.166 192.205C267.513 191.773 265.805 191.45 264.098 191.18C261.343 190.749 258.589 190.533 255.724 190.533C236.664 190.533 219.917 200.399 210.607 215.226C210.221 215.819 209.891 216.412 209.56 217.005C205.484 224.068 203.115 232.155 202.839 240.781C202.839 241.266 202.839 241.752 202.839 242.291V257.872C202.839 267.145 205.318 275.879 209.726 283.373C210.276 284.344 210.882 285.26 211.488 286.177C213.637 289.358 216.116 292.323 218.925 294.965C219.586 295.558 220.247 296.205 220.908 296.744C230.218 304.723 242.393 309.576 255.779 309.576H255.834C259.911 309.576 263.822 309.144 267.623 308.282C283.654 304.723 296.875 293.994 303.706 279.761C303.982 279.168 304.257 278.575 304.533 277.982C305.8 275.017 306.846 271.89 307.562 268.655H281.12C279.522 272.213 277.154 275.394 274.234 277.982C273.297 278.791 272.251 279.599 271.204 280.3C266.797 283.212 261.509 284.883 255.834 284.883C251.538 284.883 247.516 283.913 243.88 282.187C243.329 281.918 242.723 281.648 242.173 281.325C233.799 276.688 228.18 267.9 228.18 257.818V255.985H308.774V242.237C308.609 237.546 308.003 233.018 306.791 228.651ZM273.903 221.911C276.823 224.445 279.247 227.572 280.9 231.077H230.549C234.956 221.749 244.541 215.226 255.724 215.226C262.004 215.226 267.844 217.275 272.471 220.779C272.967 221.156 273.408 221.534 273.903 221.911Z" fill="white"/>
<path fill-rule="evenodd" clip-rule="evenodd" d="M376.747 190.533C347.495 190.533 323.807 213.716 323.807 242.291V257.872C323.807 259.813 323.917 261.754 324.138 263.695C324.193 264.45 324.303 265.204 324.413 265.905C328.379 290.706 350.249 309.63 376.692 309.63C405.889 309.63 429.632 286.447 429.632 257.872V242.291C429.687 213.716 405.999 190.533 376.747 190.533ZM404.401 257.872C404.401 272.806 392.006 284.937 376.747 284.937C361.487 284.937 349.093 272.806 349.093 257.872V242.291C349.093 242.129 349.093 241.913 349.093 241.752C349.093 240.835 349.148 239.919 349.258 239.056C350.91 225.685 362.589 215.226 376.747 215.226C392.006 215.226 404.401 227.357 404.401 242.291V257.872Z" fill="white"/>
<path d="M510.889 250C510.889 388.074 396.526 500 255.445 500C167.909 500 90.6754 456.923 44.6216 391.201C44.291 390.716 43.9054 390.231 43.5749 389.692C38.3415 382.144 33.5488 374.272 29.1968 366.185C28.8663 365.592 28.5358 364.999 28.2603 364.406C20.7132 350.119 14.5433 335.023 9.97099 319.334C9.80573 318.741 9.64046 318.147 9.47519 317.554C7.76746 311.516 6.22498 305.37 4.95795 299.116C4.79269 298.415 4.68251 297.714 4.51724 296.959C2.75442 287.956 1.48739 278.79 0.771238 269.463C0.716149 268.87 0.661061 268.277 0.661061 267.684C0.220354 261.861 0 255.931 0 250V249.676C0 248.868 0 248.005 0 247.196C0.0550883 241.32 0.33053 235.551 0.826325 229.782C0.881413 229.027 0.936503 228.219 1.04668 227.464C1.54247 222.18 2.20353 216.951 2.97477 211.775C3.08495 211.02 3.19513 210.319 3.3053 209.618C4.68251 201.262 6.50042 193.013 8.75904 184.926C8.92431 184.333 9.08958 183.739 9.25484 183.146C10.1913 179.75 11.238 176.407 12.3398 173.118C12.5601 172.525 12.7254 171.932 12.9458 171.339C14.7086 166.163 16.6367 160.988 18.73 155.974C19.336 154.518 19.942 153.062 20.603 151.661C59.6607 62.4326 150.116 0 255.445 0C396.526 0 510.889 111.926 510.889 250Z" fill="url(#paint22_linear_1227_7706)"/>
<path d="M505.882 250.916C505.882 386.294 393.778 496.009 255.451 496.009C169.623 496.009 93.8767 453.741 48.7593 389.367C48.4288 388.882 48.0983 388.397 47.7677 387.911C42.6445 380.525 37.962 372.816 33.6651 364.836C33.3346 364.243 33.0592 363.65 32.7286 363.057C25.3468 349.039 19.2871 334.267 14.7698 318.847C14.6046 318.254 14.4393 317.661 14.274 317.068C12.5663 311.138 11.0789 305.099 9.86696 299.007C9.7017 298.306 9.59152 297.605 9.42626 296.904C7.71852 288.062 6.50658 279.113 5.79043 269.947C5.73534 269.354 5.68025 268.761 5.68025 268.168C5.29463 262.453 5.07428 256.631 5.07428 250.808V250.484C5.07428 249.676 5.07428 248.867 5.07428 248.058C5.12937 242.289 5.40481 236.628 5.9006 230.967C5.95569 230.213 6.01078 229.458 6.12096 228.703C6.61675 223.527 7.22273 218.405 8.04905 213.284C8.15923 212.583 8.2694 211.882 8.37958 211.127C9.75679 202.932 11.5196 194.845 13.7231 186.919C13.8884 186.326 14.0537 185.787 14.2189 185.194C15.1554 181.905 16.147 178.617 17.2488 175.328C17.4692 174.735 17.6344 174.142 17.8548 173.549C19.5625 168.427 21.4906 163.413 23.5289 158.453C24.1348 157.051 24.7408 155.595 25.3468 154.194C63.4679 67.0144 152.16 5.82178 255.451 5.82178C393.778 5.82178 505.882 115.537 505.882 250.916Z" fill="url(#paint23_linear_1227_7706)"/>
<mask id="mask0_1227_7706" style="mask-type:alpha" maskUnits="userSpaceOnUse" x="5" y="5" width="501" height="492">
<path d="M505.881 250.916C505.881 386.294 393.777 496.009 255.45 496.009C169.622 496.009 93.8758 453.741 48.7584 389.367C48.4279 388.882 48.0974 388.397 47.7668 387.911C42.6436 380.525 37.9611 372.816 33.6642 364.836C33.3337 364.243 33.0582 363.65 32.7277 363.057C25.3459 349.039 19.2862 334.267 14.7689 318.847C14.6036 318.254 14.4384 317.661 14.2731 317.068C12.5654 311.138 11.078 305.099 9.86605 299.007C9.70078 298.306 9.59061 297.605 9.42534 296.904C7.71761 288.062 6.50566 279.113 5.78951 269.947C5.73443 269.354 5.67934 268.761 5.67934 268.168C5.29372 262.453 5.07336 256.631 5.07336 250.808V250.484C5.07336 249.676 5.07336 248.867 5.07336 248.058C5.12845 242.289 5.40389 236.628 5.89969 230.967C5.95478 230.213 6.00987 229.458 6.12004 228.703C6.61584 223.527 7.22181 218.405 8.04814 213.284C8.15831 212.583 8.26849 211.882 8.37866 211.127C9.75587 202.932 11.5187 194.845 13.7222 186.919C13.8875 186.326 14.0528 185.787 14.218 185.194C15.1545 181.905 16.1461 178.617 17.2479 175.328C17.4682 174.735 17.6335 174.142 17.8539 173.549C19.5616 168.427 21.4897 163.413 23.528 158.453C24.1339 157.051 24.7399 155.595 25.3459 154.194C63.467 67.0144 152.159 5.82178 255.45 5.82178C393.777 5.82178 505.881 115.537 505.881 250.916Z" fill="url(#paint24_linear_1227_7706)"/>
</mask>
<g mask="url(#mask0_1227_7706)">
<g style="mix-blend-mode:color-dodge">
<path style="mix-blend-mode:color-dodge" d="M-522.748 193.341C-521.247 193.341 -519.996 192.324 -519.612 190.94H-478.238L-461.345 207.833H-317.261L-289.762 180.35H-241.067L-207.747 213.67H-151.231L-101.786 164.224H25.5551L61.426 128.353H75.8677L100.632 103.589H145.442L199.356 49.6742C200.607 50.3746 202.225 50.2078 203.275 49.1572C204.543 47.8731 204.543 45.8052 203.275 44.5212C202.008 43.2371 199.923 43.2371 198.639 44.5212C197.572 45.5885 197.405 47.1894 198.122 48.4568L144.708 101.855H99.8983L75.134 126.619H60.6922L24.8213 162.49H-102.52L-151.965 211.935H-207.03L-240.35 178.599H-290.479L-317.962 206.099H-460.611L-477.505 189.205H-519.596C-519.979 187.821 -521.23 186.804 -522.731 186.804C-524.549 186.804 -526.016 188.272 -526.016 190.073C-526.016 191.874 -524.549 193.358 -522.731 193.358L-522.748 193.341Z" fill="url(#paint25_linear_1227_7706)"/>
<path style="mix-blend-mode:color-dodge" d="M-528.489 352.906C-526.988 352.906 -525.721 351.889 -525.337 350.505H-458.832L-444.824 336.497H-351.036L-332.892 354.641H-290.667L-283.196 347.186H-218.075L-183.355 381.906H-116.032L-85.9647 351.839H-24.7791L14.4438 391.062H54.267L85.6852 359.643H108.165L154.709 406.187H181.408L216.878 441.675C216.161 442.925 216.328 444.543 217.412 445.593C218.679 446.878 220.764 446.878 222.048 445.593C223.315 444.309 223.315 442.242 222.048 440.957C220.981 439.89 219.363 439.723 218.129 440.441L182.141 404.453H155.443L108.899 357.909H84.9848L53.5665 389.311H15.1942L-24.0287 350.088H-86.6651L-116.733 380.155H-182.621L-217.341 345.435H-283.913L-291.384 352.89H-332.158L-350.302 334.746H-445.524L-459.532 348.754H-525.32C-525.704 347.37 -526.971 346.352 -528.472 346.352C-530.273 346.352 -531.758 347.82 -531.758 349.638C-531.758 351.455 -530.29 352.906 -528.472 352.906H-528.489Z" fill="url(#paint26_linear_1227_7706)"/>
<path style="mix-blend-mode:color-dodge" d="M-519.156 258.195C-517.655 258.195 -516.387 257.177 -516.004 255.793H-387.862L-349.59 294.065H-298.21L-268.376 264.248H-193.633L-160.563 297.301H-105.948L-93.3744 284.727H-45.5799L-26.0018 304.305H12.6207L33.733 283.192H74.4233L102.673 311.442H154.186L190.958 348.197H319.016L347.449 376.63C346.749 377.881 346.915 379.482 347.966 380.549C349.25 381.833 351.335 381.833 352.602 380.549C353.869 379.265 353.869 377.197 352.602 375.913C351.535 374.846 349.934 374.679 348.683 375.38L319.733 346.429H191.675L154.92 309.658H103.407L75.1404 281.408H32.9992L11.8869 302.52H-25.3014L-44.8795 282.942H-94.1082L-106.682 295.516H-159.846L-192.899 262.464H-269.093L-298.927 292.281H-348.873L-387.145 254.009H-516.02C-516.404 252.625 -517.655 251.607 -519.172 251.607C-520.99 251.607 -522.458 253.075 -522.458 254.876C-522.458 256.677 -520.99 258.161 -519.172 258.161L-519.156 258.195Z" fill="url(#paint27_linear_1227_7706)"/>
<path style="mix-blend-mode:color-dodge" d="M-460.26 225.858L-479.671 206.463H-515.292C-515.676 205.079 -516.926 204.062 -518.444 204.062C-520.262 204.062 -521.729 205.53 -521.729 207.331C-521.729 209.132 -520.262 210.616 -518.444 210.616C-516.943 210.616 -515.676 209.599 -515.292 208.214H-480.388L-460.977 227.609H-381.197L-339.873 268.933H-307.171L-281.122 242.885H-184.283L-155.266 271.902H-112.408L-89.1773 248.688H-16.8352L4.6106 270.134H93.1288L144.575 218.687H246.918L266.797 198.809C268.047 199.509 269.648 199.359 270.716 198.292C272 197.008 272 194.94 270.716 193.656C269.432 192.372 267.364 192.372 266.079 193.656C265.012 194.723 264.845 196.324 265.563 197.575L246.201 216.936H143.858L92.4117 268.383H5.34436L-16.1014 246.937H-89.8944L-113.125 270.15H-154.532L-183.549 241.134H-281.823L-307.888 267.182H-339.156L-380.48 225.858H-460.26Z" fill="url(#paint28_linear_1227_7706)"/>
<path style="mix-blend-mode:color-dodge" d="M256.798 110.092H213.323L179.503 143.912H95.4379L53.897 185.452H-93.9391L-138.932 230.445C-140.183 229.745 -141.784 229.912 -142.851 230.962C-144.135 232.246 -144.135 234.314 -142.851 235.598C-141.567 236.882 -139.499 236.882 -138.215 235.598C-137.148 234.531 -136.998 232.913 -137.698 231.663L-93.222 187.187H54.6141L96.1549 145.646H180.221L214.04 111.826H257.516L289.401 79.941H344.449C344.833 81.3251 346.084 82.3424 347.601 82.3424C349.419 82.3424 350.887 80.8749 350.887 79.0738C350.887 77.2728 349.419 75.7886 347.601 75.7886C346.1 75.7886 344.833 76.8058 344.449 78.19H288.667L256.782 110.075L256.798 110.092Z" fill="url(#paint29_linear_1227_7706)"/>
<path style="mix-blend-mode:color-dodge" d="M1.49199 196.568H-79.9221L-119.595 236.241C-120.846 235.54 -122.447 235.707 -123.531 236.758C-124.798 238.042 -124.798 240.11 -123.531 241.394C-122.247 242.678 -120.162 242.678 -118.895 241.394C-117.827 240.326 -117.661 238.726 -118.378 237.475L-79.205 198.319H0.758224L25.1558 222.716H73.9508L110.072 186.612H200.508C200.891 187.996 202.159 189.013 203.66 189.013C205.461 189.013 206.928 187.546 206.928 185.728C206.928 183.927 205.461 182.459 203.66 182.459C202.159 182.459 200.891 183.477 200.508 184.861H109.338L73.2337 220.965H25.8728L1.4753 196.568H1.49199Z" fill="url(#paint30_linear_1227_7706)"/>
<path style="mix-blend-mode:color-dodge" d="M236.963 139.566L209.431 167.115H98.316L60.6274 204.787H36.4966C36.1131 203.403 34.8624 202.386 33.3448 202.386C31.5271 202.386 30.0762 203.854 30.0762 205.671C30.0762 207.489 31.5271 208.94 33.3448 208.94C34.8624 208.94 36.1131 207.923 36.4966 206.538H61.3611L99.0331 168.85H210.148L237.697 141.317H276.837L296.948 121.205C298.199 121.906 299.8 121.739 300.867 120.688C302.151 119.404 302.151 117.336 300.867 116.052C299.583 114.768 297.515 114.768 296.231 116.052C295.164 117.12 295.014 118.721 295.714 119.971L276.12 139.566H236.98H236.963Z" fill="url(#paint31_linear_1227_7706)"/>
<path style="mix-blend-mode:color-dodge" d="M213.498 207.179H134.536L88.1588 253.556H18.3515L-0.959732 234.228H-52.8733C-53.2568 232.844 -54.5076 231.827 -56.0085 231.827C-57.8262 231.827 -59.2937 233.294 -59.2937 235.112C-59.2937 236.93 -57.8262 238.381 -56.0085 238.381C-54.5076 238.381 -53.2568 237.363 -52.8733 235.979H-1.67686L17.6511 255.307H88.8925L135.27 208.93H213.515C213.899 210.314 215.149 211.332 216.667 211.332C218.485 211.332 219.952 209.864 219.952 208.063C219.952 206.262 218.501 204.778 216.667 204.778C215.166 204.778 213.915 205.795 213.515 207.179H213.498Z" fill="url(#paint32_linear_1227_7706)"/>
<path style="mix-blend-mode:color-dodge" d="M300.311 153.829C298.81 153.829 297.542 154.846 297.159 156.23H265.307L224.967 196.571H122.074L80.0492 238.595H23.7664L-1.34825 213.464H-67.7535C-68.1371 212.08 -69.3878 211.062 -70.9054 211.062C-72.7064 211.062 -74.174 212.53 -74.174 214.348C-74.174 216.165 -72.7064 217.633 -70.9054 217.633C-69.3878 217.633 -68.1371 216.616 -67.7535 215.232H-2.06532L23.066 240.346H80.7829L122.824 198.322H225.717L266.057 157.982H297.192C297.576 159.366 298.843 160.383 300.344 160.383C302.145 160.383 303.629 158.915 303.629 157.098C303.629 155.28 302.162 153.829 300.344 153.829H300.311Z" fill="url(#paint33_linear_1227_7706)"/>
<path style="mix-blend-mode:color-dodge" d="M187.466 86.1542L152.446 121.175H97.8471L45.1831 173.839H-87.1606C-87.5442 172.454 -88.7949 171.437 -90.3124 171.437C-92.1135 171.437 -93.5811 172.905 -93.5811 174.722C-93.5811 176.523 -92.1135 178.008 -90.3124 178.008C-88.7949 178.008 -87.5442 176.99 -87.1606 175.606H45.9169L98.5642 122.942H153.163L188.183 87.9219H243.982L278.953 52.9515C280.203 53.6519 281.821 53.4852 282.872 52.4345C284.139 51.1505 284.139 49.0826 282.872 47.7985C281.604 46.5144 279.52 46.5144 278.235 47.7985C277.168 48.8658 277.001 50.4667 277.719 51.7341L243.265 86.1875H187.466V86.1542Z" fill="url(#paint34_linear_1227_7706)"/>
<path style="mix-blend-mode:color-dodge" d="M-415.946 326.822C-414.445 326.822 -413.194 325.805 -412.811 324.421H-339.401L-324.426 339.396H-209.926L-180.692 368.63H-125.143L-88.5388 332.025H-7.99191L24.9272 364.945H60.3645L84.4786 340.814H119.532L150.467 371.749H312.511C312.895 373.133 314.162 374.15 315.663 374.15C317.481 374.15 318.948 372.682 318.948 370.865C318.948 369.047 317.481 367.596 315.663 367.596C314.162 367.596 312.895 368.613 312.511 369.998H151.184L120.249 339.063H83.7448L59.6307 363.194H25.6276L-7.27484 330.274H-89.2726L-125.877 366.879H-179.992L-209.226 337.645H-323.726L-338.718 322.67H-412.844C-413.228 321.286 -414.479 320.269 -415.979 320.269C-417.797 320.269 -419.265 321.736 -419.265 323.554C-419.265 325.355 -417.797 326.822 -415.979 326.822H-415.946Z" fill="url(#paint35_linear_1227_7706)"/>
<path style="mix-blend-mode:color-dodge" d="M-64.4986 302.918H-49.5065L-33.4471 318.977H27.5384L42.2136 304.302H75.1328L92.4261 321.612H145.657L186.197 362.152H307.735C308.118 363.536 309.369 364.553 310.87 364.553C312.688 364.553 314.155 363.086 314.155 361.268C314.155 359.451 312.704 357.983 310.87 357.983C309.369 357.983 308.118 359 307.735 360.384H186.914L146.374 319.844H93.1432L75.8498 302.551H41.4798L26.8046 317.226H-32.7467L-48.8061 301.167H-65.2323L-78.5067 314.458H-160.404L-193.74 281.122H-253.392L-277.539 305.269H-330.654C-331.037 303.885 -332.304 302.868 -333.805 302.868C-335.606 302.868 -337.091 304.335 -337.091 306.153C-337.091 307.971 -335.623 309.421 -333.805 309.421C-332.304 309.421 -331.037 308.404 -330.654 307.02H-276.822L-252.675 282.873H-194.458L-161.121 316.209H-77.7896L-64.4986 302.918Z" fill="url(#paint36_linear_1227_7706)"/>
<path style="mix-blend-mode:color-dodge" d="M255.614 243.724L288.283 211.055C289.534 211.755 291.152 211.589 292.202 210.538C293.47 209.254 293.47 207.186 292.202 205.902C290.935 204.618 288.834 204.618 287.566 205.902C286.499 206.969 286.332 208.57 287.033 209.821L254.881 241.99H141.348L101.675 281.663C100.424 280.962 98.8065 281.113 97.7392 282.18C96.4718 283.464 96.4718 285.532 97.7392 286.816C99.0233 288.1 101.108 288.1 102.375 286.816C103.443 285.749 103.609 284.148 102.892 282.88L142.065 243.707H255.598L255.614 243.724Z" fill="url(#paint37_linear_1227_7706)"/>
<path style="mix-blend-mode:color-dodge" d="M346.447 324.117H312.127L296.185 308.174H259.713L241.353 326.535H195.693L163.807 294.65H114.796C114.412 293.266 113.161 292.249 111.644 292.249C109.826 292.249 108.358 293.716 108.358 295.534C108.358 297.352 109.826 298.802 111.644 298.802C113.145 298.802 114.412 297.785 114.796 296.401H163.09L194.976 328.286H242.07L260.43 309.925H295.451L311.393 325.868H345.697L375.931 356.086C375.23 357.336 375.381 358.954 376.448 360.021C377.732 361.305 379.8 361.305 381.084 360.021C382.351 358.737 382.351 356.669 381.084 355.385C380.017 354.318 378.416 354.151 377.148 354.852L346.414 324.117H346.447Z" fill="url(#paint38_linear_1227_7706)"/>
<path style="mix-blend-mode:color-dodge" d="M191.051 263.069L214.482 286.499H242.982L265.078 264.403H297.08L313.506 247.976C314.757 248.677 316.358 248.51 317.425 247.459C318.692 246.175 318.692 244.107 317.425 242.823C316.141 241.539 314.073 241.539 312.789 242.823C311.722 243.891 311.555 245.492 312.255 246.742L296.329 262.668H264.327L242.215 284.764H215.166L191.735 261.334H148.01L130.55 278.794C129.299 278.077 127.681 278.244 126.614 279.328C125.347 280.612 125.347 282.68 126.614 283.964C127.898 285.248 129.966 285.248 131.25 283.964C132.317 282.897 132.467 281.279 131.767 280.028L148.71 263.085H190.985L191.051 263.069Z" fill="url(#paint39_linear_1227_7706)"/>
<path style="mix-blend-mode:color-dodge" d="M235.523 252.122C235.139 250.738 233.889 249.72 232.388 249.72C230.57 249.72 229.103 251.188 229.103 252.989C229.103 254.807 230.57 256.274 232.388 256.274C233.889 256.274 235.139 255.257 235.523 253.873H283.568L319.872 217.568C321.123 218.285 322.74 218.119 323.791 217.051C325.075 215.767 325.075 213.699 323.791 212.415C322.524 211.131 320.439 211.131 319.172 212.415C318.104 213.482 317.938 215.083 318.638 216.334L282.851 252.122H235.523Z" fill="url(#paint40_linear_1227_7706)"/>
<path style="mix-blend-mode:color-dodge" d="M309.951 278.45H275.397L258.738 295.109H191.332L177.324 281.101H150.541C150.158 279.717 148.89 278.7 147.39 278.7C145.589 278.7 144.104 280.167 144.104 281.985C144.104 283.803 145.572 285.27 147.39 285.27C148.89 285.27 150.158 284.253 150.541 282.869H176.607L190.615 296.877H259.472L276.148 280.217H310.685L359.18 231.723C360.43 232.423 362.048 232.273 363.098 231.206C364.383 229.921 364.383 227.854 363.098 226.57C361.831 225.285 359.747 225.285 358.463 226.57C357.395 227.637 357.245 229.238 357.946 230.488L309.968 278.483L309.951 278.45Z" fill="url(#paint41_linear_1227_7706)"/>
<path style="mix-blend-mode:color-dodge" d="M180.649 295.512C179.382 294.228 177.297 294.228 176.03 295.512C174.762 296.796 174.762 298.864 176.03 300.148C177.097 301.216 178.715 301.382 179.949 300.665L193.54 314.257H230.478C230.862 315.641 232.112 316.675 233.613 316.675C235.431 316.675 236.898 315.207 236.898 313.389C236.898 311.572 235.431 310.104 233.613 310.104C232.112 310.104 230.862 311.121 230.478 312.506H194.274L181.183 299.415C181.883 298.164 181.716 296.563 180.649 295.496V295.512Z" fill="url(#paint42_linear_1227_7706)"/>
<path style="mix-blend-mode:color-dodge" d="M347.569 436.672C346.068 436.672 344.801 437.689 344.417 439.073H299.508L290.336 429.901H237.188L197.582 390.278H158.226C157.842 388.894 156.575 387.877 155.074 387.877C153.256 387.877 151.789 389.344 151.789 391.146C151.789 392.963 153.256 394.431 155.074 394.431C156.575 394.431 157.842 393.413 158.226 392.029H196.848L236.455 431.652H289.602L298.774 440.841H344.401C344.784 442.225 346.035 443.243 347.553 443.243C349.37 443.243 350.838 441.775 350.838 439.957C350.838 438.14 349.37 436.672 347.553 436.672H347.569Z" fill="url(#paint43_linear_1227_7706)"/>
<path style="mix-blend-mode:color-dodge" d="M377.556 418.547C376.039 418.547 374.788 419.564 374.405 420.948H301.229L293.257 412.977H249.298L214.995 378.673H168.885C168.501 377.289 167.251 376.272 165.733 376.272C163.932 376.272 162.465 377.74 162.465 379.541C162.465 381.358 163.932 382.826 165.733 382.826C167.251 382.826 168.501 381.809 168.885 380.424H214.278L248.581 414.728H292.54L300.512 422.699H374.405C374.788 424.083 376.039 425.1 377.556 425.1C379.374 425.1 380.825 423.633 380.825 421.815C380.825 419.997 379.357 418.53 377.556 418.53V418.547Z" fill="url(#paint44_linear_1227_7706)"/>
<path style="mix-blend-mode:color-dodge" d="M325.925 412.422C327.193 413.706 329.277 413.706 330.561 412.422C331.845 411.138 331.845 409.07 330.561 407.786C329.494 406.719 327.876 406.552 326.626 407.269L305.797 386.44H253.883C253.5 385.056 252.249 384.039 250.731 384.039C248.914 384.039 247.463 385.507 247.463 387.324C247.463 389.142 248.93 390.61 250.731 390.61C252.232 390.61 253.5 389.592 253.883 388.208H305.08L325.392 408.537C324.691 409.787 324.858 411.388 325.908 412.456L325.925 412.422Z" fill="url(#paint45_linear_1227_7706)"/>
</g>
</g>
<path d="M137.015 192.581C165.661 192.581 188.908 215.279 188.908 243.314V309.359H164.118V243.314C164.118 228.704 151.944 216.789 137.015 216.789C122.031 216.789 109.911 228.704 109.911 243.314V309.359H85.1214V243.314C85.1214 215.333 108.369 192.581 137.015 192.581Z" fill="white"/>
<path fill-rule="evenodd" clip-rule="evenodd" d="M305.805 229.997C305.64 229.35 305.419 228.703 305.254 228.11C299.911 211.559 286.194 198.727 268.951 194.306C267.298 193.875 265.646 193.551 263.993 193.282C261.294 192.85 258.594 192.635 255.785 192.635C237.055 192.635 220.694 202.339 211.549 216.842C211.163 217.435 210.833 218.028 210.502 218.621C206.536 225.576 204.167 233.502 203.892 241.912C203.892 242.398 203.892 242.883 203.892 243.368V258.626C203.892 267.737 206.371 276.256 210.612 283.642C211.163 284.558 211.714 285.529 212.32 286.391C214.414 289.519 216.893 292.43 219.592 295.018C220.253 295.611 220.859 296.204 221.575 296.797C230.72 304.614 242.674 309.359 255.73 309.359H255.785C259.751 309.359 263.663 308.928 267.353 308.065C283.054 304.561 296.054 294.101 302.72 280.137C302.996 279.544 303.271 278.951 303.546 278.358C304.813 275.447 305.805 272.374 306.521 269.193H280.63C279.032 272.697 276.718 275.824 273.854 278.358C272.917 279.167 271.926 279.922 270.879 280.623C266.582 283.48 261.349 285.151 255.785 285.151C251.598 285.151 247.632 284.235 244.051 282.51C243.5 282.24 242.949 281.971 242.398 281.647C234.19 277.064 228.681 268.438 228.681 258.626V256.793H307.678V243.314C307.623 238.731 306.962 234.257 305.805 229.997ZM273.523 223.366C276.388 225.846 278.757 228.919 280.354 232.37H230.995C235.292 223.204 244.712 216.842 255.675 216.842C261.845 216.842 267.574 218.891 272.091 222.288C272.587 222.611 273.083 222.988 273.523 223.366Z" fill="white"/>
<path fill-rule="evenodd" clip-rule="evenodd" d="M374.392 192.581C345.746 192.581 322.499 215.279 322.499 243.314V258.572C322.499 260.513 322.609 262.4 322.829 264.287C322.884 265.042 322.994 265.743 323.104 266.443C326.961 290.759 348.445 309.305 374.392 309.305C403.038 309.305 426.285 286.607 426.285 258.572V243.368C426.285 215.333 403.093 192.581 374.392 192.581ZM401.55 258.626C401.55 273.237 389.376 285.152 374.447 285.152C359.463 285.152 347.343 273.237 347.343 258.626V243.368C347.343 243.206 347.343 242.991 347.343 242.829C347.343 241.913 347.398 241.05 347.509 240.187C349.106 227.086 360.565 216.842 374.447 216.842C389.431 216.842 401.55 228.757 401.55 243.368V258.626Z" fill="white"/>
<defs>
<linearGradient id="paint0_linear_1227_7706" x1="108.992" y1="435.061" x2="397.554" y2="54.373" gradientUnits="userSpaceOnUse">
<stop stop-color="#054C52"/>
<stop offset="1" stop-color="#040A22"/>
</linearGradient>
<linearGradient id="paint1_linear_1227_7706" x1="115.363" y1="102.153" x2="154.452" y2="129.442" gradientUnits="userSpaceOnUse">
<stop stop-color="#066A68"/>
<stop offset="1" stop-color="#36EB8A"/>
</linearGradient>
<linearGradient id="paint2_linear_1227_7706" x1="146.231" y1="433.232" x2="226.934" y2="521.83" gradientUnits="userSpaceOnUse">
<stop stop-color="#066A68"/>
<stop offset="1" stop-color="#36EB8A"/>
</linearGradient>
<linearGradient id="paint3_linear_1227_7706" x1="205.882" y1="366.03" x2="357.914" y2="532.764" gradientUnits="userSpaceOnUse">
<stop stop-color="#066A68"/>
<stop offset="1" stop-color="#36EB8A"/>
</linearGradient>
<linearGradient id="paint4_linear_1227_7706" x1="138.704" y1="236.669" x2="166.123" y2="281.335" gradientUnits="userSpaceOnUse">
<stop stop-color="#066A68"/>
<stop offset="1" stop-color="#36EB8A"/>
</linearGradient>
<linearGradient id="paint5_linear_1227_7706" x1="202.696" y1="139.346" x2="331.397" y2="203.75" gradientUnits="userSpaceOnUse">
<stop stop-color="#066A68"/>
<stop offset="1" stop-color="#36EB8A"/>
</linearGradient>
<linearGradient id="paint6_linear_1227_7706" x1="111.837" y1="205.386" x2="166.371" y2="254.457" gradientUnits="userSpaceOnUse">
<stop stop-color="#066A68"/>
<stop offset="1" stop-color="#36EB8A"/>
</linearGradient>
<linearGradient id="paint7_linear_1227_7706" x1="185.498" y1="149.63" x2="334.533" y2="79.4465" gradientUnits="userSpaceOnUse">
<stop stop-color="#066A68"/>
<stop offset="1" stop-color="#36EB8A"/>
</linearGradient>
<linearGradient id="paint8_linear_1227_7706" x1="115.349" y1="233.897" x2="173.889" y2="286.511" gradientUnits="userSpaceOnUse">
<stop stop-color="#066A68"/>
<stop offset="1" stop-color="#36EB8A"/>
</linearGradient>
<linearGradient id="paint9_linear_1227_7706" x1="164.616" y1="201.208" x2="261.126" y2="269.747" gradientUnits="userSpaceOnUse">
<stop stop-color="#066A68"/>
<stop offset="1" stop-color="#36EB8A"/>
</linearGradient>
<linearGradient id="paint10_linear_1227_7706" x1="164.062" y1="115.495" x2="260.383" y2="160.565" gradientUnits="userSpaceOnUse">
<stop stop-color="#066A68"/>
<stop offset="1" stop-color="#36EB8A"/>
</linearGradient>
<linearGradient id="paint11_linear_1227_7706" x1="180.26" y1="382.196" x2="220.059" y2="470.874" gradientUnits="userSpaceOnUse">
<stop stop-color="#066A68"/>
<stop offset="1" stop-color="#36EB8A"/>
</linearGradient>
<linearGradient id="paint12_linear_1227_7706" x1="182.506" y1="365.313" x2="281.83" y2="491.401" gradientUnits="userSpaceOnUse">
<stop stop-color="#066A68"/>
<stop offset="1" stop-color="#36EB8A"/>
</linearGradient>
<linearGradient id="paint13_linear_1227_7706" x1="208.195" y1="236.15" x2="322.746" y2="191.991" gradientUnits="userSpaceOnUse">
<stop stop-color="#066A68"/>
<stop offset="1" stop-color="#36EB8A"/>
</linearGradient>
<linearGradient id="paint14_linear_1227_7706" x1="263.933" y1="313.465" x2="393.135" y2="229.803" gradientUnits="userSpaceOnUse">
<stop stop-color="#066A68"/>
<stop offset="1" stop-color="#36EB8A"/>
</linearGradient>
<linearGradient id="paint15_linear_1227_7706" x1="232.138" y1="252.834" x2="318.628" y2="192.108" gradientUnits="userSpaceOnUse">
<stop stop-color="#066A68"/>
<stop offset="1" stop-color="#36EB8A"/>
</linearGradient>
<linearGradient id="paint16_linear_1227_7706" x1="287.091" y1="236.036" x2="344.291" y2="216.184" gradientUnits="userSpaceOnUse">
<stop stop-color="#066A68"/>
<stop offset="1" stop-color="#36EB8A"/>
</linearGradient>
<linearGradient id="paint17_linear_1227_7706" x1="273.551" y1="255.547" x2="391.275" y2="196.459" gradientUnits="userSpaceOnUse">
<stop stop-color="#066A68"/>
<stop offset="1" stop-color="#36EB8A"/>
</linearGradient>
<linearGradient id="paint18_linear_1227_7706" x1="206.886" y1="303.145" x2="241.218" y2="287.544" gradientUnits="userSpaceOnUse">
<stop stop-color="#066A68"/>
<stop offset="1" stop-color="#36EB8A"/>
</linearGradient>
<linearGradient id="paint19_linear_1227_7706" x1="265.279" y1="408.415" x2="364.671" y2="350.3" gradientUnits="userSpaceOnUse">
<stop stop-color="#066A68"/>
<stop offset="1" stop-color="#36EB8A"/>
</linearGradient>
<linearGradient id="paint20_linear_1227_7706" x1="285.879" y1="391.327" x2="381.573" y2="321.731" gradientUnits="userSpaceOnUse">
<stop stop-color="#066A68"/>
<stop offset="1" stop-color="#36EB8A"/>
</linearGradient>
<linearGradient id="paint21_linear_1227_7706" x1="296.021" y1="397.164" x2="342.301" y2="375.606" gradientUnits="userSpaceOnUse">
<stop stop-color="#066A68"/>
<stop offset="1" stop-color="#36EB8A"/>
</linearGradient>
<linearGradient id="paint22_linear_1227_7706" x1="472.414" y1="140.517" x2="54.3103" y2="329.31" gradientUnits="userSpaceOnUse">
<stop stop-color="#E304DE" stop-opacity="0.68"/>
<stop offset="1" stop-color="#5C07E1"/>
</linearGradient>
<linearGradient id="paint23_linear_1227_7706" x1="723.734" y1="250.916" x2="5.07428" y2="250.916" gradientUnits="userSpaceOnUse">
<stop stop-color="#2E0740"/>
<stop offset="1" stop-color="#100120"/>
</linearGradient>
<linearGradient id="paint24_linear_1227_7706" x1="723.733" y1="250.916" x2="5.07336" y2="250.916" gradientUnits="userSpaceOnUse">
<stop stop-color="#2E0740"/>
<stop offset="1" stop-color="#100120"/>
</linearGradient>
<linearGradient id="paint25_linear_1227_7706" x1="207.172" y1="128.529" x2="-341.236" y2="128.529" gradientUnits="userSpaceOnUse">
<stop offset="0.193436" stop-color="#DE1CCB"/>
<stop offset="1" stop-color="#BEAAD1"/>
</linearGradient>
<linearGradient id="paint26_linear_1227_7706" x1="226.043" y1="390.595" x2="-340.775" y2="390.595" gradientUnits="userSpaceOnUse">
<stop offset="0.193436" stop-color="#DE1CCB"/>
<stop offset="1" stop-color="#BEAAD1"/>
</linearGradient>
<linearGradient id="paint27_linear_1227_7706" x1="357.086" y1="316.495" x2="-300.793" y2="316.495" gradientUnits="userSpaceOnUse">
<stop offset="0.193436" stop-color="#DE1CCB"/>
<stop offset="1" stop-color="#BEAAD1"/>
</linearGradient>
<linearGradient id="paint28_linear_1227_7706" x1="274.879" y1="232.258" x2="-320.966" y2="232.258" gradientUnits="userSpaceOnUse">
<stop offset="0.193436" stop-color="#DE1CCB"/>
<stop offset="1" stop-color="#BEAAD1"/>
</linearGradient>
<linearGradient id="paint29_linear_1227_7706" x1="352.882" y1="156.095" x2="-18.6353" y2="156.095" gradientUnits="userSpaceOnUse">
<stop offset="0.193436" stop-color="#DE1CCB"/>
<stop offset="1" stop-color="#BEAAD1"/>
</linearGradient>
<linearGradient id="paint30_linear_1227_7706" x1="208.265" y1="212.378" x2="-40.6217" y2="212.378" gradientUnits="userSpaceOnUse">
<stop offset="0.193436" stop-color="#DE1CCB"/>
<stop offset="1" stop-color="#BEAAD1"/>
</linearGradient>
<linearGradient id="paint31_linear_1227_7706" x1="302.927" y1="161.968" x2="98.8407" y2="161.968" gradientUnits="userSpaceOnUse">
<stop offset="0.193436" stop-color="#DE1CCB"/>
<stop offset="1" stop-color="#BEAAD1"/>
</linearGradient>
<linearGradient id="paint32_linear_1227_7706" x1="221.079" y1="230.017" x2="11.3665" y2="230.017" gradientUnits="userSpaceOnUse">
<stop offset="0.193436" stop-color="#DE1CCB"/>
<stop offset="1" stop-color="#BEAAD1"/>
</linearGradient>
<linearGradient id="paint33_linear_1227_7706" x1="305.153" y1="197.045" x2="21.4251" y2="197.045" gradientUnits="userSpaceOnUse">
<stop offset="0.193436" stop-color="#DE1CCB"/>
<stop offset="1" stop-color="#BEAAD1"/>
</linearGradient>
<linearGradient id="paint34_linear_1227_7706" x1="285.345" y1="112.356" x2="1.9168" y2="112.356" gradientUnits="userSpaceOnUse">
<stop offset="0.193436" stop-color="#DE1CCB"/>
<stop offset="1" stop-color="#BEAAD1"/>
</linearGradient>
<linearGradient id="paint35_linear_1227_7706" x1="321.926" y1="347.182" x2="-232.468" y2="347.182" gradientUnits="userSpaceOnUse">
<stop offset="0.193436" stop-color="#DE1CCB"/>
<stop offset="1" stop-color="#BEAAD1"/>
</linearGradient>
<linearGradient id="paint36_linear_1227_7706" x1="316.782" y1="322.796" x2="-172.3" y2="322.796" gradientUnits="userSpaceOnUse">
<stop offset="0.193436" stop-color="#DE1CCB"/>
<stop offset="1" stop-color="#BEAAD1"/>
</linearGradient>
<linearGradient id="paint37_linear_1227_7706" x1="293.945" y1="246.318" x2="146.477" y2="246.318" gradientUnits="userSpaceOnUse">
<stop offset="0.193436" stop-color="#DE1CCB"/>
<stop offset="1" stop-color="#BEAAD1"/>
</linearGradient>
<linearGradient id="paint38_linear_1227_7706" x1="383.139" y1="326.582" x2="177.609" y2="326.582" gradientUnits="userSpaceOnUse">
<stop offset="0.193436" stop-color="#DE1CCB"/>
<stop offset="1" stop-color="#BEAAD1"/>
</linearGradient>
<linearGradient id="paint39_linear_1227_7706" x1="319.153" y1="264.157" x2="174.427" y2="264.157" gradientUnits="userSpaceOnUse">
<stop offset="0.193436" stop-color="#DE1CCB"/>
<stop offset="1" stop-color="#BEAAD1"/>
</linearGradient>
<linearGradient id="paint40_linear_1227_7706" x1="325.14" y1="233.841" x2="253.306" y2="233.841" gradientUnits="userSpaceOnUse">
<stop offset="0.193436" stop-color="#DE1CCB"/>
<stop offset="1" stop-color="#BEAAD1"/>
</linearGradient>
<linearGradient id="paint41_linear_1227_7706" x1="364.949" y1="261.206" x2="199.762" y2="261.206" gradientUnits="userSpaceOnUse">
<stop offset="0.193436" stop-color="#DE1CCB"/>
<stop offset="1" stop-color="#BEAAD1"/>
</linearGradient>
<linearGradient id="paint42_linear_1227_7706" x1="237.148" y1="305.601" x2="190.722" y2="305.601" gradientUnits="userSpaceOnUse">
<stop offset="0.193436" stop-color="#DE1CCB"/>
<stop offset="1" stop-color="#BEAAD1"/>
</linearGradient>
<linearGradient id="paint43_linear_1227_7706" x1="351.641" y1="415.532" x2="202.156" y2="415.532" gradientUnits="userSpaceOnUse">
<stop offset="0.193436" stop-color="#DE1CCB"/>
<stop offset="1" stop-color="#BEAAD1"/>
</linearGradient>
<linearGradient id="paint44_linear_1227_7706" x1="381.706" y1="400.662" x2="217.718" y2="400.662" gradientUnits="userSpaceOnUse">
<stop offset="0.193436" stop-color="#DE1CCB"/>
<stop offset="1" stop-color="#BEAAD1"/>
</linearGradient>
<linearGradient id="paint45_linear_1227_7706" x1="331.863" y1="398.698" x2="268.734" y2="398.698" gradientUnits="userSpaceOnUse">
<stop offset="0.193436" stop-color="#DE1CCB"/>
<stop offset="1" stop-color="#BEAAD1"/>
</linearGradient>
</defs>
</svg>
