<svg width="653" height="143" viewBox="0 0 653 143" fill="none" xmlns="http://www.w3.org/2000/svg">
<path d="M29.4973 6.072V14.84H11.1933V24.312H24.8893V32.824H11.1933V51H0.24925V6.072H29.4973ZM70.5133 15.288V51H59.5693V46.136C58.4599 47.7147 56.9453 48.9947 55.0253 49.976C53.1479 50.9147 51.0573 51.384 48.7533 51.384C46.0226 51.384 43.6119 50.7867 41.5213 49.592C39.4306 48.3547 37.8093 46.584 36.6573 44.28C35.5053 41.976 34.9293 39.2667 34.9293 36.152V15.288H45.8093V34.68C45.8093 37.0693 46.4279 38.9253 47.6653 40.248C48.9026 41.5707 50.5666 42.232 52.6573 42.232C54.7906 42.232 56.4759 41.5707 57.7133 40.248C58.9506 38.9253 59.5693 37.0693 59.5693 34.68V15.288H70.5133ZM98.2783 41.72V51H92.7103C88.7423 51 85.6489 50.04 83.4303 48.12C81.2116 46.1573 80.1023 42.9787 80.1023 38.584V24.376H75.7503V15.288H80.1023V6.584H91.0463V15.288H98.2143V24.376H91.0463V38.712C91.0463 39.7787 91.3023 40.5467 91.8143 41.016C92.3263 41.4853 93.1796 41.72 94.3743 41.72H98.2783ZM139.638 15.288V51H128.694V46.136C127.585 47.7147 126.07 48.9947 124.15 49.976C122.273 50.9147 120.182 51.384 117.878 51.384C115.148 51.384 112.737 50.7867 110.646 49.592C108.556 48.3547 106.934 46.584 105.782 44.28C104.63 41.976 104.054 39.2667 104.054 36.152V15.288H114.934V34.68C114.934 37.0693 115.553 38.9253 116.79 40.248C118.028 41.5707 119.692 42.232 121.782 42.232C123.916 42.232 125.601 41.5707 126.838 40.248C128.076 38.9253 128.694 37.0693 128.694 34.68V15.288H139.638ZM158.443 21.24C159.723 19.2773 161.323 17.7413 163.243 16.632C165.163 15.48 167.297 14.904 169.643 14.904V26.488H166.635C163.905 26.488 161.857 27.0853 160.491 28.28C159.126 29.432 158.443 31.48 158.443 34.424V51H147.499V15.288H158.443V21.24ZM208.538 32.568C208.538 33.592 208.474 34.6587 208.346 35.768H183.578C183.749 37.9867 184.453 39.6933 185.69 40.888C186.97 42.04 188.528 42.616 190.362 42.616C193.093 42.616 194.992 41.464 196.058 39.16H207.706C207.109 41.5067 206.021 43.6187 204.442 45.496C202.906 47.3733 200.965 48.8453 198.618 49.912C196.272 50.9787 193.648 51.512 190.746 51.512C187.248 51.512 184.133 50.7653 181.402 49.272C178.672 47.7787 176.538 45.6453 175.002 42.872C173.466 40.0987 172.698 36.856 172.698 33.144C172.698 29.432 173.445 26.1893 174.938 23.416C176.474 20.6427 178.608 18.5093 181.338 17.016C184.069 15.5227 187.205 14.776 190.746 14.776C194.202 14.776 197.274 15.5013 199.962 16.952C202.65 18.4027 204.741 20.472 206.234 23.16C207.77 25.848 208.538 28.984 208.538 32.568ZM197.338 29.688C197.338 27.8107 196.698 26.3173 195.418 25.208C194.138 24.0987 192.538 23.544 190.618 23.544C188.784 23.544 187.226 24.0773 185.946 25.144C184.709 26.2107 183.941 27.7253 183.642 29.688H197.338ZM244.13 51.512C240.632 51.512 237.474 50.7653 234.658 49.272C231.885 47.7787 229.688 45.6453 228.066 42.872C226.488 40.0987 225.698 36.856 225.698 33.144C225.698 29.4747 226.509 26.2533 228.13 23.48C229.752 20.664 231.97 18.5093 234.786 17.016C237.602 15.5227 240.76 14.776 244.258 14.776C247.757 14.776 250.914 15.5227 253.73 17.016C256.546 18.5093 258.765 20.664 260.386 23.48C262.008 26.2533 262.818 29.4747 262.818 33.144C262.818 36.8133 261.986 40.056 260.322 42.872C258.701 45.6453 256.461 47.7787 253.602 49.272C250.786 50.7653 247.629 51.512 244.13 51.512ZM244.13 42.04C246.221 42.04 247.992 41.272 249.442 39.736C250.936 38.2 251.682 36.0027 251.682 33.144C251.682 30.2853 250.957 28.088 249.506 26.552C248.098 25.016 246.349 24.248 244.258 24.248C242.125 24.248 240.354 25.016 238.946 26.552C237.538 28.0453 236.834 30.2427 236.834 33.144C236.834 36.0027 237.517 38.2 238.882 39.736C240.29 41.272 242.04 42.04 244.13 42.04ZM286.544 24.376H280.656V51H269.712V24.376H265.744V15.288H269.712V14.264C269.712 9.86933 270.971 6.54133 273.488 4.28C276.006 1.976 279.696 0.823997 284.56 0.823997C285.371 0.823997 285.968 0.845331 286.352 0.887997V10.168C284.262 10.04 282.79 10.3387 281.936 11.064C281.083 11.7893 280.656 13.0907 280.656 14.968V15.288H286.544V24.376ZM339.489 20.536C339.489 23.1387 338.892 25.528 337.697 27.704C336.503 29.8373 334.668 31.5653 332.193 32.888C329.719 34.2107 326.647 34.872 322.977 34.872H316.193V51H305.249V6.072H322.977C326.561 6.072 329.591 6.69066 332.065 7.928C334.54 9.16533 336.396 10.872 337.633 13.048C338.871 15.224 339.489 17.72 339.489 20.536ZM322.145 26.168C324.236 26.168 325.793 25.6773 326.817 24.696C327.841 23.7147 328.353 22.328 328.353 20.536C328.353 18.744 327.841 17.3573 326.817 16.376C325.793 15.3947 324.236 14.904 322.145 14.904H316.193V26.168H322.145ZM343.011 33.08C343.011 29.4107 343.693 26.1893 345.059 23.416C346.467 20.6427 348.365 18.5093 350.755 17.016C353.144 15.5227 355.811 14.776 358.755 14.776C361.272 14.776 363.469 15.288 365.347 16.312C367.267 17.336 368.739 18.68 369.763 20.344V15.288H380.707V51H369.763V45.944C368.696 47.608 367.203 48.952 365.283 49.976C363.405 51 361.208 51.512 358.691 51.512C355.789 51.512 353.144 50.7653 350.755 49.272C348.365 47.736 346.467 45.5813 345.059 42.808C343.693 39.992 343.011 36.7493 343.011 33.08ZM369.763 33.144C369.763 30.4133 368.995 28.2587 367.459 26.68C365.965 25.1013 364.131 24.312 361.955 24.312C359.779 24.312 357.923 25.1013 356.387 26.68C354.893 28.216 354.147 30.3493 354.147 33.08C354.147 35.8107 354.893 37.9867 356.387 39.608C357.923 41.1867 359.779 41.976 361.955 41.976C364.131 41.976 365.965 41.1867 367.459 39.608C368.995 38.0293 369.763 35.8747 369.763 33.144ZM425.104 15.288L402.704 67.96H390.928L399.12 49.784L384.592 15.288H396.816L405.072 37.624L413.264 15.288H425.104ZM474.63 14.904C479.067 14.904 482.587 16.248 485.19 18.936C487.835 21.624 489.158 25.3573 489.158 30.136V51H478.278V31.608C478.278 29.304 477.659 27.5333 476.422 26.296C475.227 25.016 473.563 24.376 471.43 24.376C469.296 24.376 467.611 25.016 466.374 26.296C465.179 27.5333 464.582 29.304 464.582 31.608V51H453.702V31.608C453.702 29.304 453.083 27.5333 451.846 26.296C450.651 25.016 448.987 24.376 446.854 24.376C444.72 24.376 443.035 25.016 441.798 26.296C440.603 27.5333 440.006 29.304 440.006 31.608V51H429.062V15.288H440.006V19.768C441.115 18.2747 442.566 17.1013 444.358 16.248C446.15 15.352 448.176 14.904 450.438 14.904C453.126 14.904 455.515 15.48 457.606 16.632C459.739 17.784 461.403 19.4267 462.598 21.56C463.835 19.5973 465.52 17.9973 467.654 16.76C469.787 15.5227 472.112 14.904 474.63 14.904ZM530.476 32.568C530.476 33.592 530.412 34.6587 530.284 35.768H505.516C505.686 37.9867 506.39 39.6933 507.628 40.888C508.908 42.04 510.465 42.616 512.3 42.616C515.03 42.616 516.929 41.464 517.996 39.16H529.644C529.046 41.5067 527.958 43.6187 526.38 45.496C524.844 47.3733 522.902 48.8453 520.556 49.912C518.209 50.9787 515.585 51.512 512.684 51.512C509.185 51.512 506.07 50.7653 503.34 49.272C500.609 47.7787 498.476 45.6453 496.94 42.872C495.404 40.0987 494.636 36.856 494.636 33.144C494.636 29.432 495.382 26.1893 496.876 23.416C498.412 20.6427 500.545 18.5093 503.276 17.016C506.006 15.5227 509.142 14.776 512.684 14.776C516.14 14.776 519.212 15.5013 521.9 16.952C524.588 18.4027 526.678 20.472 528.172 23.16C529.708 25.848 530.476 28.984 530.476 32.568ZM519.276 29.688C519.276 27.8107 518.636 26.3173 517.356 25.208C516.076 24.0987 514.476 23.544 512.556 23.544C510.721 23.544 509.164 24.0773 507.884 25.144C506.646 26.2107 505.878 27.7253 505.58 29.688H519.276ZM558.009 14.904C562.191 14.904 565.519 16.2693 567.993 19C570.511 21.688 571.769 25.4 571.769 30.136V51H560.889V31.608C560.889 29.2187 560.271 27.3627 559.033 26.04C557.796 24.7173 556.132 24.056 554.041 24.056C551.951 24.056 550.287 24.7173 549.049 26.04C547.812 27.3627 547.193 29.2187 547.193 31.608V51H536.249V15.288H547.193V20.024C548.303 18.4453 549.796 17.208 551.673 16.312C553.551 15.3733 555.663 14.904 558.009 14.904ZM599.278 41.72V51H593.71C589.742 51 586.649 50.04 584.43 48.12C582.212 46.1573 581.102 42.9787 581.102 38.584V24.376H576.75V15.288H581.102V6.584H592.046V15.288H599.214V24.376H592.046V38.712C592.046 39.7787 592.302 40.5467 592.814 41.016C593.326 41.4853 594.18 41.72 595.374 41.72H599.278ZM619.902 51.512C616.788 51.512 614.014 50.9787 611.582 49.912C609.15 48.8453 607.23 47.3947 605.822 45.56C604.414 43.6827 603.625 41.592 603.454 39.288H614.27C614.398 40.5253 614.974 41.528 615.998 42.296C617.022 43.064 618.281 43.448 619.774 43.448C621.14 43.448 622.185 43.192 622.91 42.68C623.678 42.1253 624.062 41.4213 624.062 40.568C624.062 39.544 623.529 38.7973 622.462 38.328C621.396 37.816 619.668 37.2613 617.278 36.664C614.718 36.0667 612.585 35.448 610.878 34.808C609.172 34.1253 607.7 33.08 606.462 31.672C605.225 30.2213 604.606 28.28 604.606 25.848C604.606 23.8 605.161 21.944 606.27 20.28C607.422 18.5733 609.086 17.2293 611.262 16.248C613.481 15.2667 616.105 14.776 619.134 14.776C623.614 14.776 627.134 15.8853 629.694 18.104C632.297 20.3227 633.79 23.2667 634.174 26.936H624.062C623.892 25.6987 623.337 24.7173 622.398 23.992C621.502 23.2667 620.308 22.904 618.814 22.904C617.534 22.904 616.553 23.16 615.87 23.672C615.188 24.1413 614.846 24.8027 614.846 25.656C614.846 26.68 615.38 27.448 616.446 27.96C617.556 28.472 619.262 28.984 621.566 29.496C624.212 30.1787 626.366 30.8613 628.03 31.544C629.694 32.184 631.145 33.2507 632.382 34.744C633.662 36.1947 634.324 38.1573 634.366 40.632C634.366 42.7227 633.769 44.6 632.574 46.264C631.422 47.8853 629.737 49.1653 627.518 50.104C625.342 51.0427 622.804 51.512 619.902 51.512ZM646.182 51.512C644.262 51.512 642.683 50.9573 641.446 49.848C640.251 48.696 639.654 47.288 639.654 45.624C639.654 43.9173 640.251 42.488 641.446 41.336C642.683 40.184 644.262 39.608 646.182 39.608C648.059 39.608 649.595 40.184 650.79 41.336C652.027 42.488 652.646 43.9173 652.646 45.624C652.646 47.288 652.027 48.696 650.79 49.848C649.595 50.9573 648.059 51.512 646.182 51.512Z" fill="url(#paint0_linear_1496_90)"/>
<path d="M107.534 81.072V111.664C107.534 116.4 106.19 120.048 103.502 122.608C100.857 125.168 97.2729 126.448 92.7503 126.448C88.0143 126.448 84.2169 125.104 81.3583 122.416C78.4996 119.728 77.0703 115.909 77.0703 110.96H87.9503C87.9503 112.837 88.3343 114.267 89.1023 115.248C89.8703 116.187 90.9796 116.656 92.4303 116.656C93.7529 116.656 94.7769 116.229 95.5023 115.376C96.2276 114.523 96.5903 113.285 96.5903 111.664V81.072H107.534ZM151.638 90.288V126H140.694V121.136C139.585 122.715 138.07 123.995 136.15 124.976C134.273 125.915 132.182 126.384 129.878 126.384C127.148 126.384 124.737 125.787 122.646 124.592C120.556 123.355 118.934 121.584 117.782 119.28C116.63 116.976 116.054 114.267 116.054 111.152V90.288H126.934V109.68C126.934 112.069 127.553 113.925 128.79 115.248C130.028 116.571 131.692 117.232 133.782 117.232C135.916 117.232 137.601 116.571 138.838 115.248C140.076 113.925 140.694 112.069 140.694 109.68V90.288H151.638ZM174.027 126.512C170.913 126.512 168.139 125.979 165.707 124.912C163.275 123.845 161.355 122.395 159.947 120.56C158.539 118.683 157.75 116.592 157.579 114.288H168.395C168.523 115.525 169.099 116.528 170.123 117.296C171.147 118.064 172.406 118.448 173.899 118.448C175.265 118.448 176.31 118.192 177.035 117.68C177.803 117.125 178.187 116.421 178.187 115.568C178.187 114.544 177.654 113.797 176.587 113.328C175.521 112.816 173.793 112.261 171.403 111.664C168.843 111.067 166.71 110.448 165.003 109.808C163.297 109.125 161.825 108.08 160.587 106.672C159.35 105.221 158.731 103.28 158.731 100.848C158.731 98.8 159.286 96.944 160.395 95.28C161.547 93.5733 163.211 92.2293 165.387 91.248C167.606 90.2667 170.23 89.776 173.259 89.776C177.739 89.776 181.259 90.8853 183.819 93.104C186.422 95.3227 187.915 98.2667 188.299 101.936H178.187C178.017 100.699 177.462 99.7173 176.523 98.992C175.627 98.2667 174.433 97.904 172.939 97.904C171.659 97.904 170.678 98.16 169.995 98.672C169.313 99.1413 168.971 99.8027 168.971 100.656C168.971 101.68 169.505 102.448 170.571 102.96C171.681 103.472 173.387 103.984 175.691 104.496C178.337 105.179 180.491 105.861 182.155 106.544C183.819 107.184 185.27 108.251 186.507 109.744C187.787 111.195 188.449 113.157 188.491 115.632C188.491 117.723 187.894 119.6 186.699 121.264C185.547 122.885 183.862 124.165 181.643 125.104C179.467 126.043 176.929 126.512 174.027 126.512ZM215.091 116.72V126H209.523C205.555 126 202.461 125.04 200.243 123.12C198.024 121.157 196.915 117.979 196.915 113.584V99.376H192.563V90.288H196.915V81.584H207.859V90.288H215.027V99.376H207.859V113.712C207.859 114.779 208.115 115.547 208.627 116.016C209.139 116.485 209.992 116.72 211.187 116.72H215.091ZM286.013 90.288L276.349 126H264.253L258.621 102.832L252.797 126H240.765L231.037 90.288H241.981L247.037 115.824L253.053 90.288H264.637L270.717 115.696L275.709 90.288H286.013ZM288.011 108.08C288.011 104.411 288.693 101.189 290.059 98.416C291.467 95.6427 293.365 93.5093 295.755 92.016C298.144 90.5227 300.811 89.776 303.755 89.776C306.272 89.776 308.469 90.288 310.347 91.312C312.267 92.336 313.739 93.68 314.763 95.344V90.288H325.707V126H314.763V120.944C313.696 122.608 312.203 123.952 310.283 124.976C308.405 126 306.208 126.512 303.691 126.512C300.789 126.512 298.144 125.765 295.755 124.272C293.365 122.736 291.467 120.581 290.059 117.808C288.693 114.992 288.011 111.749 288.011 108.08ZM314.763 108.144C314.763 105.413 313.995 103.259 312.459 101.68C310.965 100.101 309.131 99.312 306.955 99.312C304.779 99.312 302.923 100.101 301.387 101.68C299.893 103.216 299.147 105.349 299.147 108.08C299.147 110.811 299.893 112.987 301.387 114.608C302.923 116.187 304.779 116.976 306.955 116.976C309.131 116.976 310.965 116.187 312.459 114.608C313.995 113.029 314.763 110.875 314.763 108.144ZM370.104 90.288L347.704 142.96H335.928L344.12 124.784L329.592 90.288H341.816L350.072 112.624L358.264 90.288H370.104ZM385.448 108.144C385.448 104.432 386.195 101.189 387.688 98.416C389.224 95.6427 391.336 93.5093 394.024 92.016C396.755 90.5227 399.87 89.776 403.368 89.776C407.848 89.776 411.582 90.9493 414.568 93.296C417.598 95.6427 419.582 98.9493 420.52 103.216H408.872C407.891 100.485 405.992 99.12 403.176 99.12C401.171 99.12 399.571 99.9093 398.376 101.488C397.182 103.024 396.584 105.243 396.584 108.144C396.584 111.045 397.182 113.285 398.376 114.864C399.571 116.4 401.171 117.168 403.176 117.168C405.992 117.168 407.891 115.803 408.872 113.072H420.52C419.582 117.253 417.598 120.539 414.568 122.928C411.539 125.317 407.806 126.512 403.368 126.512C399.87 126.512 396.755 125.765 394.024 124.272C391.336 122.779 389.224 120.645 387.688 117.872C386.195 115.099 385.448 111.856 385.448 108.144ZM442.63 126.512C439.132 126.512 435.974 125.765 433.158 124.272C430.385 122.779 428.188 120.645 426.566 117.872C424.988 115.099 424.198 111.856 424.198 108.144C424.198 104.475 425.009 101.253 426.63 98.48C428.252 95.664 430.47 93.5093 433.286 92.016C436.102 90.5227 439.26 89.776 442.758 89.776C446.257 89.776 449.414 90.5227 452.23 92.016C455.046 93.5093 457.265 95.664 458.886 98.48C460.508 101.253 461.318 104.475 461.318 108.144C461.318 111.813 460.486 115.056 458.822 117.872C457.201 120.645 454.961 122.779 452.102 124.272C449.286 125.765 446.129 126.512 442.63 126.512ZM442.63 117.04C444.721 117.04 446.492 116.272 447.942 114.736C449.436 113.2 450.182 111.003 450.182 108.144C450.182 105.285 449.457 103.088 448.006 101.552C446.598 100.016 444.849 99.248 442.758 99.248C440.625 99.248 438.854 100.016 437.446 101.552C436.038 103.045 435.334 105.243 435.334 108.144C435.334 111.003 436.017 113.2 437.382 114.736C438.79 116.272 440.54 117.04 442.63 117.04ZM483.38 126.512C479.882 126.512 476.724 125.765 473.908 124.272C471.135 122.779 468.938 120.645 467.316 117.872C465.738 115.099 464.948 111.856 464.948 108.144C464.948 104.475 465.759 101.253 467.38 98.48C469.002 95.664 471.22 93.5093 474.036 92.016C476.852 90.5227 480.01 89.776 483.508 89.776C487.007 89.776 490.164 90.5227 492.98 92.016C495.796 93.5093 498.015 95.664 499.636 98.48C501.258 101.253 502.068 104.475 502.068 108.144C502.068 111.813 501.236 115.056 499.572 117.872C497.951 120.645 495.711 122.779 492.852 124.272C490.036 125.765 486.879 126.512 483.38 126.512ZM483.38 117.04C485.471 117.04 487.242 116.272 488.692 114.736C490.186 113.2 490.932 111.003 490.932 108.144C490.932 105.285 490.207 103.088 488.756 101.552C487.348 100.016 485.599 99.248 483.508 99.248C481.375 99.248 479.604 100.016 478.196 101.552C476.788 103.045 476.084 105.243 476.084 108.144C476.084 111.003 476.767 113.2 478.132 114.736C479.54 116.272 481.29 117.04 483.38 117.04ZM518.818 78.64V126H507.874V78.64H518.818ZM560.413 107.568C560.413 108.592 560.349 109.659 560.221 110.768H535.453C535.624 112.987 536.328 114.693 537.565 115.888C538.845 117.04 540.403 117.616 542.237 117.616C544.968 117.616 546.867 116.464 547.933 114.16H559.581C558.984 116.507 557.896 118.619 556.317 120.496C554.781 122.373 552.84 123.845 550.493 124.912C548.147 125.979 545.523 126.512 542.621 126.512C539.123 126.512 536.008 125.765 533.277 124.272C530.547 122.779 528.413 120.645 526.877 117.872C525.341 115.099 524.573 111.856 524.573 108.144C524.573 104.432 525.32 101.189 526.813 98.416C528.349 95.6427 530.483 93.5093 533.213 92.016C535.944 90.5227 539.08 89.776 542.621 89.776C546.077 89.776 549.149 90.5013 551.837 91.952C554.525 93.4027 556.616 95.472 558.109 98.16C559.645 100.848 560.413 103.984 560.413 107.568ZM549.213 104.688C549.213 102.811 548.573 101.317 547.293 100.208C546.013 99.0987 544.413 98.544 542.493 98.544C540.659 98.544 539.101 99.0773 537.821 100.144C536.584 101.211 535.816 102.725 535.517 104.688H549.213ZM577.131 96.24C578.411 94.2773 580.011 92.7413 581.931 91.632C583.851 90.48 585.984 89.904 588.331 89.904V101.488H585.323C582.592 101.488 580.544 102.085 579.179 103.28C577.813 104.432 577.131 106.48 577.131 109.424V126H566.187V90.288H577.131V96.24Z" fill="url(#paint1_linear_1496_90)"/>
<defs>
<linearGradient id="paint0_linear_1496_90" x1="67.5" y1="-23" x2="641.5" y2="89" gradientUnits="userSpaceOnUse">
<stop stop-color="#A0A0A0"/>
<stop offset="0.458333" stop-color="white"/>
<stop offset="1" stop-color="#9B9797"/>
</linearGradient>
<linearGradient id="paint1_linear_1496_90" x1="154" y1="84.5" x2="502.5" y2="160.5" gradientUnits="userSpaceOnUse">
<stop stop-color="#1F7E69"/>
<stop offset="0.489583" stop-color="#21B292"/>
<stop offset="1" stop-color="#1F7E69"/>
</linearGradient>
</defs>
</svg>
